<?xml version="1.0" encoding="utf-8"?>
<!-- Generator: Adobe Illustrator 22.1.0, SVG Export Plug-In . SVG Version: 6.00 Build 0)  -->
<svg version="1.1" id="Calque_1" fill="#fff" xmlns="http://www.w3.org/2000/svg" xmlns:xlink="http://www.w3.org/1999/xlink" x="0px" y="0px"
	 viewBox="0 0 70.5 59.3" style="enable-background:new 0 0 70.5 59.3;" xml:space="preserve">
<g>
	<path d="M34.5,20.7L30.2,5.2C30,4.6,29.6,4.2,29,4l-15.6-4c-0.6-0.2-1.2,0-1.7,0.5L0.5,12c-0.4,0.4-0.6,1.1-0.4,1.7l4.3,15.5
		c0.1,0.3,0.2,0.6,0.4,0.8c0.2,0.2,0.5,0.4,0.8,0.5l15.6,4c0.6,0.2,1.2,0,1.7-0.5l11.2-11.5C34.6,22,34.7,21.3,34.5,20.7z M7.5,27.2
		L3.7,13.7l9.8-10l13.6,3.5l3.8,13.5l-9.8,10L7.5,27.2z"/>
	<path d="M26.1,14.7c-0.4-1.5-1.2-2.9-2.3-4c-2.3-2.3-5.8-3.2-9-2.3C10,9.7,7.1,14.8,8.5,19.7c0.4,1.5,1.2,2.9,2.3,4
		c2.3,2.3,5.8,3.2,9,2.3C24.7,24.7,27.5,19.6,26.1,14.7z M18.8,22.7c-2,0.6-4.1,0-5.5-1.5c-0.7-0.7-1.2-1.5-1.4-2.5
		c-0.8-3,0.9-6.1,3.9-7c2-0.6,4.1,0,5.5,1.5c0.7,0.7,1.2,1.5,1.4,2.5C23.6,18.7,21.8,21.8,18.8,22.7z"/>
	<path d="M32.9,52.5l-13-10.4L15,47.1c-0.4,0.4-0.5,0.9-0.5,1.4c0.1,2.7,1.3,5.5,3.3,7.5c0,0,0,0,0,0c2.1,2.1,4.9,3.3,7.6,3.3
		c0.5,0,1-0.2,1.3-0.6L32.9,52.5z M20.3,53.5C19,52.2,18.2,50.6,18,49l2.2-2.2l7.5,6l-2.9,2.9C23.1,55.5,21.5,54.7,20.3,53.5z"/>
	<path d="M69.6,21.2l-17-17c-1.2-1.2-3.3-1.2-4.5,0l-4.5,4.5c-0.6,0.6-0.9,1.4-0.9,2.3c0,0.9,0.3,1.7,0.9,2.3l2.6,2.7L34.3,27.8
		l13,10.4l10.6-10.6l2.7,2.7c0.6,0.6,1.4,0.9,2.3,0.9c0.9,0,1.7-0.3,2.3-0.9l4.5-4.5C70.8,24.5,70.8,22.4,69.6,21.2z M62.8,27.5
		l-4.9-4.9L47,33.5l-7.5-6l11.6-11.6L46.2,11l4.1-4.1l16.6,16.6L62.8,27.5z"/>
	<path d="M39.5,44.8c0.6-0.8,0.5-1.9-0.3-2.5L29.9,35c-0.8-0.6-1.9-0.5-2.5,0.3c-0.5,0.7-0.5,1.7,0.1,2.3c0,0.1,0.1,0.1,0.2,0.1
		l9.4,7.3C37.8,45.7,38.9,45.6,39.5,44.8z"/>
	<path d="M43.3,38.2L34,30.9c-0.8-0.6-1.9-0.5-2.5,0.3c-0.6,0.7-0.5,1.7,0.1,2.3c0.1,0.1,0.1,0.1,0.2,0.1l9.4,7.3
		c0.8,0.6,1.9,0.5,2.5-0.3C44.2,39.9,44.1,38.8,43.3,38.2z"/>
	<path d="M35.1,46.5l-9.4-7.3c-0.8-0.6-1.9-0.5-2.5,0.3c-0.6,0.7-0.5,1.7,0.1,2.3c0.1,0,0.1,0.1,0.2,0.1l9.4,7.3
		c0.8,0.6,1.9,0.5,2.5-0.3C36,48.2,35.9,47.1,35.1,46.5z"/>
</g>
</svg>
