<?xml version="1.0" encoding="utf-8"?>
<!-- Generator: Adobe Illustrator 21.0.0, SVG Export Plug-In . SVG Version: 6.00 Build 0)  -->
<svg version="1.1" id="Layer_1" xmlns="http://www.w3.org/2000/svg" xmlns:xlink="http://www.w3.org/1999/xlink" x="0px" y="0px"
	 viewBox="0 0 42.2 40.1" style="enable-background:new 0 0 42.2 40.1;" xml:space="preserve">
<style type="text/css">
	.st0{fill:#FFFFFF;}
</style>
<path class="st0" d="M21.1,40.1C9.5,40.1,0,30.7,0,19v-1.1h18.5V7.6c0-4.2,3.4-7.6,7.6-7.6s7.6,3.4,7.6,7.6c0,1.4-1.2,2.6-2.6,2.6
	S28.5,9,28.5,7.6c0-1.3-1.1-2.4-2.4-2.4s-2.4,1.1-2.4,2.4v10.3h18.5V19C42.2,30.7,32.7,40.1,21.1,40.1z M2.2,20.1
	C2.8,30,11,37.9,21.1,37.9S39.4,30,40,20.1H21.5V7.6c0-2.5,2.1-4.6,4.6-4.6s4.6,2.1,4.6,4.6c0,0.2,0.2,0.4,0.4,0.4s0.4-0.2,0.4-0.4
	c0-3-2.4-5.4-5.4-5.4s-5.4,2.4-5.4,5.4v12.5H2.2z M14.1,16.1c-1.4,0-2.6-1.2-2.6-2.6s1.2-2.6,2.6-2.6s2.6,1.2,2.6,2.6
	S15.5,16.1,14.1,16.1z M28.1,16.1c-1.4,0-2.6-1.2-2.6-2.6s1.2-2.6,2.6-2.6s2.6,1.2,2.6,2.6S29.5,16.1,28.1,16.1z"/>
</svg>
