<?xml version="1.0" encoding="utf-8"?>
<!-- Generator: Adobe Illustrator 22.1.0, SVG Export Plug-In . SVG Version: 6.00 Build 0)  -->
<svg version="1.1" id="Calque_1" fill="#b2d235" xmlns="http://www.w3.org/2000/svg" xmlns:xlink="http://www.w3.org/1999/xlink" x="0px" y="0px"
	 viewBox="0 0 73.6 49.4" style="enable-background:new 0 0 73.6 49.4;" xml:space="preserve">
<g>
	<path d="M9.7,31.9c-0.1-0.8-0.2-1.7-0.2-2.6c0-5.8,2.2-9,3.2-9.8c0.3,0.2,0.7,0.6,1.1,1.4c0.5,0.8,1.6,1.1,2.4,0.6
		c0.8-0.5,1.1-1.6,0.6-2.4c-1.2-2-2.7-3.1-4.1-3.1c-2.8,0-6.7,5.1-6.7,13.4c0,1.1,0.1,2.1,0.2,3.1c0.1,0.9,0.9,1.5,1.7,1.5
		c0.1,0,0.1,0,0.2,0C9.2,33.7,9.9,32.9,9.7,31.9z"/>
	<path d="M19.4,29.3c0-0.9,0-1.8-0.1-2.7c-0.1-1-1-1.6-1.9-1.5c-1,0.1-1.7,1-1.5,1.9c0.1,0.8,0.1,1.5,0.1,2.3c0,5.8-2.2,9-3.2,9.8
		c-0.3-0.2-0.7-0.6-1.1-1.4c-0.5-0.8-1.6-1.1-2.4-0.6c-0.8,0.5-1.1,1.6-0.6,2.4c1.2,2,2.7,3.1,4.1,3.1
		C15.5,42.7,19.4,37.6,19.4,29.3z"/>
	<path d="M60.8,9.1h-6.2l-0.5-4.3c0,0,0-0.1,0-0.1C53.8,2,50.5,0,46.2,0c-4,0-7.2,1.7-7.8,4.1c0,0,0,0.1-0.1,0.1l-4.4,9.2
		c-0.4,0.9-0.1,1.9,0.8,2.3c0.2,0.1,0.5,0.2,0.8,0.2c0.7,0,1.3-0.4,1.6-1l3.2-6.6c1.4,1,3.5,1.6,6,1.6c1.9,0,3.5-0.4,4.9-1l0.6,5.6
		c0.1,0.9,0.9,1.6,1.7,1.6c0.1,0,0.1,0,0.2,0c1-0.1,1.7-1,1.6-1.9L55,12.6h5.9c5,0,9.3,7.6,9.3,16.7c0,9-4.2,16.6-9.3,16.6H20
		c3.3-3.6,5.5-9.7,5.5-16.6c0-7-2.1-13-5.5-16.6h10.9l1.7-3.5H12.8l-0.5,0C5.3,9.6,0,18.3,0,29.3c0,11,5.3,19.7,12.2,20.1l0.3,0
		l0.5,0h47.8c7.1,0,12.8-8.9,12.8-20.1C73.6,18,68,9.1,60.8,9.1z M46.2,6.5c-2.9,0-4.4-1.1-4.4-1.5c0.1-0.3,1.6-1.5,4.4-1.5
		c2.9,0,4.4,1.1,4.4,1.5C50.5,5.3,49,6.5,46.2,6.5z M12.8,45.9c-5,0-9.3-7.6-9.3-16.6c0-9,4.2-16.7,9.3-16.7c5,0,9.3,7.6,9.3,16.7
		C22,38.3,17.8,45.9,12.8,45.9z"/>
	<path d="M50.9,23.1h-6.1l-3.5-3.5c-0.7-0.7-1.8-0.7-2.5,0l-3.1,3.1H30c-1,0-1.7,0.8-1.7,1.8s0.8,1.8,1.7,1.8h6.5
		c0.5,0,0.9-0.2,1.2-0.5l2.4-2.4l2.8,2.8c0.3,0.3,0.8,0.5,1.2,0.5h6.8c1,0,1.8-0.8,1.8-1.8S51.9,23.1,50.9,23.1z"/>
	<path d="M52.9,30.4l-3.1,3.1H29.6c-1,0-1.8,0.8-1.8,1.8s0.8,1.8,1.8,1.8h20.9c0.5,0,0.9-0.2,1.2-0.5l2.4-2.4l2.8,2.8
		c0.3,0.3,0.8,0.5,1.2,0.5h6.1c1,0,1.8-0.8,1.8-1.8s-0.8-1.8-1.8-1.8h-5.4l-3.5-3.5C54.7,29.7,53.6,29.7,52.9,30.4z"/>
	<path d="M64.9,26.5c1,0,1.8-0.8,1.8-1.8S65.9,23,64.9,23h-5.8c-1,0-1.8,0.8-1.8,1.8s0.8,1.8,1.8,1.8H64.9z"/>
</g>
</svg>
