<?xml version="1.0" encoding="utf-8"?>
<!-- Generator: Adobe Illustrator 21.0.0, SVG Export Plug-In . SVG Version: 6.00 Build 0)  -->
<svg version="1.1" id="Calque_1" xmlns="http://www.w3.org/2000/svg" xmlns:xlink="http://www.w3.org/1999/xlink" x="0px" y="0px"
	 viewBox="0 0 56.6 55.3" style="enable-background:new 0 0 56.6 55.3;" xml:space="preserve">
<style type="text/css">
	.st0{fill:#FF6542;}
</style>
<path class="st0" d="M10.9,55.3H0v-3.5h7.4V23.4H0.1v-3.5h10.8V55.3z M52.5,25.4c-0.4,0.5-1.1,0.7-2.1,0.7v0H49
	c-1,0-1.8,0.8-1.8,1.8c0,1,0.8,1.8,1.8,1.8h1.6c0.1,0,0.1,0,0.2,0c2.2-0.1,3.6-1,4.3-1.9c0.8-0.9,1.2-2,1.5-3h-3.7
	C52.8,25,52.7,25.2,52.5,25.4z M45.1,49.8H15.7v3.5h29.4c4.2,0,6.1-3,6.7-5H48C47.5,49,46.7,49.8,45.1,49.8z M32.5,21.8l24.1,0
	c-0.2-0.7-0.5-1.3-0.9-1.8c-0.8-1-2-1.6-3.3-1.6c-0.2,0-0.3,0-0.4,0H37.9c1.7-5.7,1-12.3,1-12.6C38.5,1.5,35.8,0,33.4,0
	c-0.3,0-0.6,0-0.8,0.1c-3.7,0.1-5.3,2.9-5.4,4.9l0,0.1c0,10.1-7.7,14.2-11.5,15.7v3.7h0.1v0c3.9-1.3,14.9-6.1,14.9-19.2
	c0.1-0.6,0.5-1.6,2.1-1.6l0.3,0c0,0,0.2,0,0.3,0c0.7,0,1.7,0.3,2,2.6c0,0.1,0.9,8.1-1.6,13.2L32.5,21.8z M51.5,33.3
	C51,33.8,50.3,34,49.4,34v0H48c-1,0-1.8,0.8-1.8,1.8s0.8,1.8,1.8,1.8h1.6c0.1,0,0.1,0,0.2,0c2.2-0.1,3.6-1,4.3-1.9
	c0.8-0.9,1.2-2,1.5-3h-3.7C51.7,32.9,51.6,33.1,51.5,33.3z M49.8,41.1c-0.4,0.5-1.1,0.7-2.1,0.7v0h-1.4c-1,0-1.8,0.8-1.8,1.8
	s0.8,1.8,1.8,1.8H48c0.1,0,0.1,0,0.2,0c2.2-0.1,3.6-1,4.3-1.9c0.8-0.9,1.2-1.9,1.4-2.9h-3.7C50.1,40.7,50,40.9,49.8,41.1z"/>
</svg>
