<?xml version="1.0" encoding="utf-8"?>
<!-- Generator: Adobe Illustrator 21.0.0, SVG Export Plug-In . SVG Version: 6.00 Build 0)  -->
<svg version="1.1" id="Layer_1" xmlns="http://www.w3.org/2000/svg" xmlns:xlink="http://www.w3.org/1999/xlink" x="0px" y="0px"
	 viewBox="0 0 62.5 61.5" style="enable-background:new 0 0 62.5 61.5;" xml:space="preserve">
<style type="text/css">
	.st0{fill:#FFFFFF;}
</style>
<path class="st0" d="M62.2,25.5l-7.4-12.3c-0.1-0.2-0.1-0.3-0.3-0.4l0,0c-0.3-0.5-0.9-0.8-1.5-0.8H9.4c-0.6,0-1.2,0.3-1.5,0.8
	L0.3,25.5c0,0,0,0,0,0c-0.1,0.1-0.1,0.3-0.2,0.4c0,0,0,0,0,0c0,0.1,0,0.2,0,0.4c0,0,0,0.1,0,0.1c0,0,0,0.1,0,0.1
	c0,0.2,0.1,0.3,0.1,0.5l0,0c0.1,0.2,0.2,0.3,0.3,0.4c0,0,0,0,0,0l29.4,33.4c0.3,0.4,0.8,0.6,1.3,0.6h0.1c0.5,0,1-0.2,1.3-0.6
	L62,27.5C62.5,27,62.6,26.1,62.2,25.5 M9.5,17l5.5,7.7H4.9L9.5,17z M41.7,28.1L31.3,54.4L20.9,28.1H41.7z M22.4,24.6l8.9-8.9
	l8.9,8.9H22.4z M35.9,15.4h14L44,23.6L35.9,15.4z M18.5,23.6l-5.9-8.2h14L18.5,23.6z M17.1,28.1l9.4,23.7L5.6,28.1H17.1z M45.4,28.1
	h11.4L36.2,51.6L45.4,28.1z M47.6,24.6L53,17l4.6,7.6H47.6z M31.2,7.8c-1,0-1.7-0.8-1.7-1.8l0-4.3c0-1,0.8-1.7,1.8-1.7
	c1,0,1.7,0.8,1.7,1.8l0,4.3C33,7,32.2,7.8,31.2,7.8L31.2,7.8 M44.6,7.5c-0.8-0.6-0.9-1.7-0.3-2.5l3.1-4c0.6-0.8,1.7-0.9,2.5-0.3
	c0.8,0.6,0.9,1.7,0.3,2.5l-3.1,4c-0.3,0.4-0.9,0.7-1.4,0.7C45.3,7.8,45,7.7,44.6,7.5 M12.2,3.1c-0.6-0.8-0.5-1.9,0.3-2.5
	C13.3,0.1,14.4,0.2,15,1l3.1,4c0.6,0.8,0.5,1.9-0.3,2.5c-0.3,0.2-0.7,0.4-1.1,0.4c-0.5,0-1-0.2-1.4-0.7L12.2,3.1z"/>
</svg>
