<?xml version="1.0" encoding="utf-8"?>
<!-- Generator: Adobe Illustrator 21.0.0, SVG Export Plug-In . SVG Version: 6.00 Build 0)  -->
<svg version="1.1" id="Layer_1" xmlns="http://www.w3.org/2000/svg" xmlns:xlink="http://www.w3.org/1999/xlink" x="0px" y="0px"
	 viewBox="0 0 69.1 64.3" style="enable-background:new 0 0 69.1 64.3;" xml:space="preserve">
<style type="text/css">
	.st0{fill:#FFFFFF;}
</style>
<path class="st0" d="M67.6,7.7c-1.3-1.8-3.2-3-5.4-3.4c-0.9-0.2-22.3-4-25.5-4.3c-0.1,0-0.2,0-0.3,0l-9.3,0.9
	c-0.8,0.1-1.4,0.7-1.6,1.5l-2.8,16.8c-0.1,0.7,0.2,1.4,0.8,1.8c0.7,0.4,1.4,0.8,2.2,1.2l4.1,1.9l0,0c1.2,2.2,2.3,4.7,1.1,7
	c0,0,0,0.1-0.1,0.1c-0.5,1-0.8,2.7,0.2,3.9c0.6,0.8,1.6,1.3,3,1.3c0.5,0,1-0.1,1.5-0.2l1.7-0.3l0,9c-5,1.6-7.5,4.3-8.8,6.4
	c-0.2,0.3-0.3,0.7-0.2,1c0,0.3,0,0.4,0,0.4v6c0,3.1,2.5,5.6,5.5,5.6h21.4c2.9,0,5.3-2.3,5.5-5.2c0-0.1,0-0.2,0-0.2v-6.6
	c0-0.1,0-0.1,0-0.2v-4.5c0-2.5-2.1-4-5.5-4.1V29.2c0-0.1,0-0.1,0-0.1c0,0,0,0,0.1,0l0.7,0.1c0.2,0.1,0.5,0.1,0.7,0.1l1.4,0.2
	c0.5,0.1,0.9,0.1,1.4,0.1h0c4.1,0,7.5-2.9,8.2-6.9l1.5-8.8C69.4,11.7,68.9,9.5,67.6,7.7 M34.9,32.7c-0.4,0.1-0.8,0.1-1,0.1
	c0,0,0-0.1,0-0.1c1.1-2.1,1.1-4.2,0.7-6c1.2,1.1,2.5,2.9,2.5,5.6v0L34.9,32.7z M57.1,58.7C57.1,58.8,57.1,58.8,57.1,58.7
	c0,1.2-0.9,2.1-2,2.1H33.7c-1.1,0-2-0.9-2-2.1V54h25.4V58.7z M65.6,13.3l-1.5,8.8c-0.4,2.5-3,4.4-5.5,3.9l-1.8-0.3c0,0-0.1,0-0.1,0
	c0,0-0.1,0-0.1,0l-1-0.2c-0.1,0-0.2,0-0.2,0c0,0-0.1,0-0.1,0c-1.9,0-3.3,1.2-3.6,3.1c0,0.1,0,0.2,0,0.3v16.2c0,0.9,0.8,1.7,1.7,1.8
	l1.3,0.1c0.1,0,0.1,0,0.2,0l0.2,0c1.2,0,2,0.3,2.1,0.6v2.8H33.9c1.3-1,3.1-1.9,5.5-2.5c0.8-0.2,1.3-0.9,1.3-1.7V32.8l0-0.4
	c0-7.4-6.3-10.2-7.1-10.5l-6.4-3c-0.3-0.1-0.6-0.3-0.8-0.4l2.4-14.3l7.8-0.8c3.6,0.4,24.8,4.2,25,4.2c1.3,0.2,2.4,0.9,3.1,2
	C65.5,10.8,65.8,12,65.6,13.3 M53.9,19.8c0.3,0.9-0.3,1.9-1.2,2.2c-0.2,0-0.3,0.1-0.5,0.1c-0.8,0-1.5-0.5-1.7-1.3l-2-7
	c-0.3-0.9,0.3-1.9,1.2-2.2c0.9-0.3,1.9,0.3,2.2,1.2L53.9,19.8z M60.3,20.5c0.3,0.9-0.3,1.9-1.2,2.2c-0.2,0-0.3,0.1-0.5,0.1
	c-0.8,0-1.5-0.5-1.7-1.3l-2-7c-0.3-0.9,0.3-1.9,1.2-2.2c0.9-0.3,1.9,0.3,2.2,1.2L60.3,20.5z M22.2,4.1c-2.2-0.2-7.7-0.5-11,1.2
	l-0.9,5.1c2.3,2.4,7.1,4.3,10,4.9l0,0l-0.6,3.5l-0.3-0.1c-3.3-0.8-9.6-3.1-12.5-6.8c-0.3-0.4-0.4-0.9-0.3-1.4L7,8.6L1.4,7.4
	C0.4,7.2-0.2,6.2,0,5.3C0.2,4.4,1.2,3.8,2.1,4l5.5,1.2l0.2-1.3C8,3.4,8.3,3,8.7,2.7c4-2.6,10.5-2.4,14.1-2.1L22.2,4.1"/>
</svg>
