<?xml version="1.0" encoding="utf-8"?>
<!-- Generator: Adobe Illustrator 21.0.0, SVG Export Plug-In . SVG Version: 6.00 Build 0)  -->
<svg version="1.1" id="Layer_1" xmlns="http://www.w3.org/2000/svg" xmlns:xlink="http://www.w3.org/1999/xlink" x="0px" y="0px"
	 viewBox="0 0 52 65.2" style="enable-background:new 0 0 52 65.2;" xml:space="preserve">
<style type="text/css">
	.st0{fill:#FFFFFF;}
</style>
<path class="st0" d="M26,65.2L26,65.2c-0.4,0-0.6-0.1-0.8-0.2C-0.3,53-0.1,40.1,0,38.5V12.2c0-1,0.8-1.8,1.8-1.8
	c18.6,0,22.5-9.3,22.5-9.4C24.6,0.4,25.2,0,25.9,0s1.5,0.4,1.7,1.1c0.2,0.4,4.1,9.4,22.5,9.4c1,0,1.8,0.8,1.8,1.8v26.3
	C52.1,40.1,52.3,53,26.8,65C26.5,65.1,26.3,65.2,26,65.2z M26,63.4L26,63.4L26,63.4z M3.5,13.9v24.6c0,0.1,0,0.2,0,0.2
	c0,0.1-0.9,11.4,22.5,22.7c23.7-11.4,22.5-22.6,22.5-22.7c0-0.1,0-0.2,0-0.2V13.9C34.8,13.5,28.6,8.2,26,5
	C23.4,8.2,17.2,13.5,3.5,13.9z M25.3,43.4c0.5,0,1-0.3,1.3-0.7L39,25.5c0.6-0.8,0.4-1.9-0.4-2.4c-0.8-0.6-1.9-0.4-2.4,0.4L25,39
	l-9-9.2c-0.7-0.7-1.8-0.7-2.5,0c-0.7,0.7-0.7,1.8,0,2.5l10.4,10.7c0.3,0.3,0.8,0.5,1.3,0.5C25.2,43.4,25.3,43.4,25.3,43.4z"/>
</svg>
