<?xml version="1.0" encoding="utf-8"?>
<!-- Generator: Adobe Illustrator 22.1.0, SVG Export Plug-In . SVG Version: 6.00 Build 0)  -->
<svg version="1.1" id="Calque_1" fill="#b2d235 " xmlns="http://www.w3.org/2000/svg" xmlns:xlink="http://www.w3.org/1999/xlink" x="0px" y="0px"
	 viewBox="0 0 66.1 66" style="enable-background:new 0 0 66.1 66;" xml:space="preserve">
<g>
	<g>
		<g>
			<path d="M25.2,45.9c-0.3,0-0.6-0.1-0.8-0.3c-0.7-0.5-0.9-1.4-0.4-2.1l15.7-22.8c0.5-0.7,1.4-0.9,2.1-0.4c0.7,0.5,0.9,1.4,0.4,2.1
				L26.4,45.3C26.1,45.7,25.7,45.9,25.2,45.9z"/>
		</g>
		<g>
			<g>
				<path d="M26,31c-3,0-5.4-2.4-5.4-5.4c0-3,2.4-5.4,5.4-5.4s5.4,2.4,5.4,5.4C31.4,28.6,29,31,26,31z M26,23.3
					c-1.3,0-2.4,1.1-2.4,2.4c0,1.3,1.1,2.4,2.4,2.4c1.3,0,2.4-1.1,2.4-2.4C28.4,24.4,27.3,23.3,26,23.3z"/>
			</g>
			<g>
				<path d="M40.1,45.7c-3,0-5.4-2.4-5.4-5.4c0-3,2.4-5.4,5.4-5.4c3,0,5.4,2.4,5.4,5.4C45.4,43.3,43,45.7,40.1,45.7z M40.1,38
					c-1.3,0-2.4,1.1-2.4,2.4c0,1.3,1.1,2.4,2.4,2.4c1.3,0,2.4-1.1,2.4-2.4C42.4,39.1,41.4,38,40.1,38z"/>
			</g>
		</g>
	</g>
	<g>
		<path d="M33,66L33,66c-0.6,0-1.1-0.3-1.4-0.7l-5.3-7.4l-8.2,3.8c-0.5,0.2-1.1,0.2-1.6-0.1c-0.5-0.3-0.8-0.8-0.9-1.3l-0.9-9l-9-0.9
			c-0.6-0.1-1.1-0.4-1.3-0.9c-0.3-0.5-0.3-1.1-0.1-1.6l3.8-8.2l-7.4-5.3C0.3,34.1,0,33.6,0,33c0-0.6,0.3-1.1,0.7-1.4l7.4-5.3
			l-3.8-8.2c-0.2-0.5-0.2-1.1,0.1-1.6c0.3-0.5,0.8-0.8,1.3-0.9l9-0.9l0.9-9c0.1-0.6,0.4-1.1,0.9-1.3c0.5-0.3,1.1-0.3,1.6-0.1
			l8.2,3.8l5.3-7.4c0.7-0.9,2.2-0.9,2.9,0l5.3,7.4L48,4.3c0.5-0.2,1.1-0.2,1.6,0.1c0.5,0.3,0.8,0.8,0.9,1.3l0.9,9l9,0.9
			c0.6,0.1,1.1,0.4,1.3,0.9c0.3,0.5,0.3,1.1,0.1,1.6L58,26.3l7.4,5.3c0.5,0.3,0.7,0.9,0.7,1.4c0,0.6-0.3,1.1-0.7,1.4L58,39.7
			l3.8,8.2c0.2,0.5,0.2,1.1-0.1,1.6c-0.3,0.5-0.8,0.8-1.3,0.9l-9,0.9l-0.9,9c-0.1,0.6-0.4,1.1-0.9,1.3c-0.5,0.3-1.1,0.3-1.6,0.1
			l-8.2-3.8l-5.3,7.4C34.1,65.8,33.6,66,33,66z M27,54c0.6,0,1.1,0.3,1.4,0.7l4.7,6.6l4.7-6.6c0.5-0.7,1.4-0.9,2.2-0.6l7.3,3.3
			l0.8-8c0.1-0.8,0.7-1.5,1.6-1.6l8-0.8l-3.3-7.3c-0.3-0.8-0.1-1.7,0.6-2.2l6.5-4.7l-6.5-4.7c-0.7-0.5-0.9-1.4-0.6-2.2l3.3-7.3
			l-8-0.8C48.7,18,48,17.4,48,16.5l-0.8-8l-7.3,3.3c-0.8,0.3-1.7,0.1-2.2-0.6L33,4.7l-4.7,6.6c-0.5,0.7-1.4,0.9-2.2,0.6l-7.3-3.3
			l-0.8,8c-0.1,0.8-0.7,1.5-1.6,1.6l-8,0.8l3.3,7.3c0.3,0.8,0.1,1.7-0.6,2.2L4.8,33l6.6,4.7c0.7,0.5,0.9,1.4,0.6,2.2l-3.3,7.3l8,0.8
			c0.8,0.1,1.5,0.7,1.6,1.6l0.8,8l7.3-3.3C26.5,54,26.7,54,27,54z"/>
	</g>
</g>
</svg>
