<?xml version="1.0" encoding="utf-8"?>
<!-- Generator: Adobe Illustrator 22.1.0, SVG Export Plug-In . SVG Version: 6.00 Build 0)  -->
<svg version="1.1" id="Calque_1" fill="#b2d235" xmlns="http://www.w3.org/2000/svg" xmlns:xlink="http://www.w3.org/1999/xlink" x="0px" y="0px"
	 viewBox="0 0 70.3 53.5" style="enable-background:new 0 0 70.3 53.5;" xml:space="preserve">
<g>
	<path d="M27.3,9.1c-9.9,0-17.9,8-17.9,17.9c0,9.9,8,17.9,17.9,17.9s17.9-8,17.9-17.9C45.2,17.1,37.2,9.1,27.3,9.1z M27.3,41.4
		c-7.9,0-14.4-6.5-14.4-14.4c0-7.9,6.5-14.4,14.4-14.4c7.9,0,14.4,6.5,14.4,14.4C41.7,35,35.2,41.4,27.3,41.4z"/>
	<polygon points="56.6,44.1 56.6,47.6 66.8,47.6 66.8,52.1 70.3,52.1 70.3,44 	"/>
	<path d="M28.3,23.8c-1.1,0-2,0.4-2.8,1.1l0.2-3.3h6.2v-3.2h-9.3l-0.5,9.8h3.5c0.1-0.8,0.6-1.3,1.4-1.3c1.7,0,1.6,2.4,1.6,3.6
		c0,0.9,0,3.1-1.6,3c-1.3-0.1-1.1-1.9-1.2-2.7H22v1.4c0.5,2.9,2,4.4,5.1,4.4c4.2,0,5.5-2.4,5.5-6.3C32.6,26.9,32,23.8,28.3,23.8z"/>
	<path d="M59.8,15.5c-2.3-2-3.8-5-5-7.2c-1-2-1.6-3.1-2.7-3.5c-1.8-0.7-4,0.7-5,1.4C43.3,2.4,38,0,32.1,0H21.3C9.6,0,0,9.6,0,21.4
		v10.8c0,11.8,9.6,21.4,21.3,21.4h4.4h2.5h18.6c3.7,0,6.7-3,6.7-6.7V25c4.1-0.8,6.9-2.6,7.6-5.1C61.6,18.3,61.1,16.7,59.8,15.5z
		 M50,46.8c0,1.7-1.4,3.2-3.2,3.2H28.2h-2.5h-4.4c-9.8,0-17.9-8-17.9-17.9V21.4c0-9.8,8-17.9,17.9-17.9h10.8c9.8,0,17.9,8,17.9,17.9
		V46.8z M57.8,18.9c-0.2,0.6-1.4,1.8-4.3,2.5v-0.1c0-4.7-1.5-9-4.1-12.5c0.5-0.3,1-0.6,1.4-0.7c0.3,0.4,0.6,1.2,1,1.8
		c1.2,2.3,3,5.8,5.8,8.2C57.9,18.5,57.8,18.8,57.8,18.9z"/>
</g>
</svg>
