<?xml version="1.0" encoding="utf-8"?>
<!-- Generator: Adobe Illustrator 22.1.0, SVG Export Plug-In . SVG Version: 6.00 Build 0)  -->
<svg version="1.1" id="Calque_1" fill="#b2d235 " xmlns="http://www.w3.org/2000/svg" xmlns:xlink="http://www.w3.org/1999/xlink" x="0px" y="0px"
	 viewBox="0 0 69.1 55.5" style="enable-background:new 0 0 69.1 55.5;" xml:space="preserve">
<g>
	<g>
		<path d="M28.9,16.6h-9.8V6.8h9.8V16.6z M22.1,13.6h3.8V9.8h-3.8V13.6z"/>
	</g>
	<g>
		<path d="M29,29h-9.8v-9.8H29V29z M22.2,26H26v-3.8h-3.8V26z"/>
	</g>
	<g>
		<path d="M41.7,16.6h-9.8V6.8h9.8V16.6z M34.9,13.6h3.8V9.8h-3.8V13.6z"/>
	</g>
	<g>
		<path d="M47.5,9.8h3.8v3.5c1.1,0.3,2.2,1,3,1.7V6.8h-9.8v7.4c0.9-0.6,1.9-1,3-1.2V9.8z"/>
	</g>
	<g>
		<g>
			<path d="M7.8,20.8c-1.2,0-2.1,0.9-2.1,2.1c0,1.2,0.9,2.1,2.1,2.1c1.2,0,2.1-0.9,2.1-2.1C9.9,21.8,8.9,20.8,7.8,20.8z"/>
		</g>
		<g>
			<path d="M15.4,42.4V3.5h41.1C57.3,3.5,58,4.2,58,5v23.5l3.5,0.5V5c0-2.8-2.3-5-5-5H5C2.3,0,0,2.3,0,5v35.9c0,2.8,2.3,5,5,5h28.8
				l-2.9-3.5H15.4z M3.5,40.9V5c0-0.8,0.7-1.5,1.5-1.5h6.9v38.9H5C4.2,42.4,3.5,41.7,3.5,40.9z"/>
		</g>
		<g>
			<path d="M63.8,32.1l-10-1.6v-9.8c0-2.6-2.1-4.8-4.8-4.8h-0.3c-2.6,0-4.8,2.1-4.8,4.8l0,17.7l-2.5-2.5c-0.9-0.9-2.1-1.4-3.4-1.4
				c-1.3,0-2.4,0.5-3.3,1.4l-0.3,0.3c-1.9,1.8-1.9,4.9,0,6.7L46.6,55c0.3,0.3,0.8,0.5,1.2,0.5c0.5,0,0.9-0.2,1.2-0.5
				c0.7-0.7,0.7-1.8,0-2.5L37,40.4c-0.5-0.5-0.5-1.3,0-1.8l0.3-0.3c0.2-0.2,0.5-0.4,0.9-0.4c0.3,0,0.7,0.1,0.9,0.4l4.1,4.2
				c0.3,0.2,0.5,0.4,0.8,0.5c0.8,0.2,1.6,0.1,1.6,0.1c0.8-0.2,1.3-0.8,1.6-1.5c0.2-0.6,0.3-1.2,0.3-1.6c0-0.3,0-0.5,0-0.5l0,0l0,0
				l0-18.8c0-0.7,0.6-1.3,1.3-1.3h0.3c0.7,0,1.3,0.6,1.3,1.3v12.8l12.9,2.1c0,0,2.3,0.5,2.3,3.9l-1.1,13.7c-0.1,1,0.6,1.8,1.6,1.9
				c0,0,0.1,0,0.1,0c0.9,0,1.7-0.7,1.7-1.6l1.1-13.8c0,0,0-0.1,0-0.1C69.1,34.5,65.7,32.5,63.8,32.1z"/>
		</g>
	</g>
</g>
</svg>
