<?xml version="1.0" encoding="utf-8"?>
<!-- Generator: Adobe Illustrator 22.1.0, SVG Export Plug-In . SVG Version: 6.00 Build 0)  -->
<svg version="1.1" id="Calque_1" fill="#b2d235 " xmlns="http://www.w3.org/2000/svg" xmlns:xlink="http://www.w3.org/1999/xlink" x="0px" y="0px"
	 viewBox="0 0 51.5 64.4" style="enable-background:new 0 0 51.5 64.4;" xml:space="preserve">
<g>
	<path d="M27.5,13V7.3H24V13C10.6,13.9,0,25,0,38.6c0,14.2,11.5,25.7,25.7,25.7c14.2,0,25.7-11.5,25.7-25.7
		C51.5,25,40.9,13.9,27.5,13z M42.7,53l-2.4-2.4c-0.7-0.7-1.8-0.7-2.5,0c-0.7,0.7-0.7,1.8,0,2.5l2.4,2.4c-3.5,3-7.8,4.9-12.6,5.3
		v-3.5c0-1-0.8-1.8-1.8-1.8s-1.8,0.8-1.8,1.8v3.5c-4.8-0.4-9.3-2.3-12.7-5.2l2.5-2.5c0.7-0.7,0.7-1.8,0-2.5c-0.7-0.7-1.8-0.7-2.5,0
		l-2.5,2.5c-3-3.5-4.9-7.9-5.3-12.8h3.6c1,0,1.7-0.8,1.7-1.8c0-1-0.8-1.8-1.7-1.8H3.6C4,32,5.9,27.6,8.9,24.1l2.5,2.5
		c0.3,0.3,0.8,0.5,1.2,0.5c0.4,0,0.9-0.2,1.2-0.5c0.7-0.7,0.7-1.8,0-2.5l-2.5-2.5c3.9-3.3,8.9-5.3,14.3-5.3c5.5,0,10.6,2,14.5,5.4
		l-2.4,2.4c-0.7,0.7-0.7,1.8,0,2.5c0.3,0.3,0.8,0.5,1.2,0.5s0.9-0.2,1.2-0.5l2.3-2.3c2.9,3.5,4.8,7.8,5.2,12.6h-3.3
		c-1,0-1.8,0.8-1.8,1.8c0,1,0.8,1.8,1.8,1.8h3.3C47.5,45.2,45.6,49.5,42.7,53z"/>
	<path d="M19.7,5.8c0-1.2,1-2.3,2.3-2.3h7.7c1.2,0,2.3,1,2.3,2.3v3.9h3.5V5.8c0-3.2-2.6-5.8-5.8-5.8h-7.7c-3.2,0-5.8,2.6-5.8,5.8
		v3.9h3.5V5.8z"/>
	<path d="M48.3,19.6l2.7-2.3c-2.1-2.4-4.5-4.6-7.2-6.3l-1.9,3C44.3,15.5,46.4,17.4,48.3,19.6z"/>
	<path d="M27.5,32.5V21.8c0-1-0.8-1.8-1.8-1.8c-1,0-1.8,0.8-1.8,1.8v10.7c-2.7,0.8-4.7,3.2-4.7,6.2s2,5.4,4.7,6.2v2.7
		c0,1,0.8,1.8,1.8,1.8c1,0,1.8-0.8,1.8-1.8v-2.7c2.7-0.8,4.7-3.2,4.7-6.2S30.2,33.2,27.5,32.5z M27.5,41c-0.5,0.4-1.1,0.6-1.8,0.6
		c-0.7,0-1.3-0.2-1.8-0.6c-0.7-0.5-1.2-1.4-1.2-2.3c0-1,0.5-1.8,1.2-2.3c0.5-0.4,1.1-0.6,1.8-0.6c0.7,0,1.3,0.2,1.8,0.6
		c0.7,0.5,1.2,1.4,1.2,2.3S28.2,40.4,27.5,41z"/>
</g>
</svg>
