<?xml version="1.0" encoding="utf-8"?>
<!-- Generator: Adobe Illustrator 21.0.0, SVG Export Plug-In . SVG Version: 6.00 Build 0)  -->
<svg version="1.1" id="Layer_1" xmlns="http://www.w3.org/2000/svg" xmlns:xlink="http://www.w3.org/1999/xlink" x="0px" y="0px"
	 viewBox="0 0 66.4 71.2" style="enable-background:new 0 0 66.4 71.2;" xml:space="preserve">
<style type="text/css">
	.st0{fill:#FF6542;}
</style>
<path class="st0" d="M8.6,48.2c-1.1,0-2-0.9-2-2c0-1.1,0.9-2,2-2s2,0.9,2,2C10.6,47.3,9.7,48.2,8.6,48.2 M31.1,30.3
	c-1.1,1.1-1.1,2.8,0,3.9c1.1,1.1,2.8,1.1,3.9,0c1.1-1.1,1.1-2.8,0-3.9C33.9,29.3,32.2,29.3,31.1,30.3 M33,52.6
	c5.2,0,10.4-2,14.4-5.9c7.2-7.2,7.8-18.5,1.9-26.4l-2.5,2.5c4.6,6.6,3.9,15.6-1.9,21.5C39.1,50,30,50.6,23.5,46.1L21,48.6
	C24.6,51.2,28.8,52.6,33,52.6 M66.4,57.5v9.3h-6.6v2.6c0,1-0.8,1.8-1.8,1.8c-1,0-1.8-0.8-1.8-1.8v-2.6H12.2v2.6c0,1-0.8,1.8-1.8,1.8
	c-1,0-1.8-0.8-1.8-1.8v-2.6H2.3l0-16.2l-1-1c-1.9-1.9-1.9-4.9,0-6.7l7.4-7.4c-1-7.3,1.3-15,6.9-20.6c6.2-6.2,14.9-8.3,22.9-6.4
	L46,1.1c1.4-1.4,3.9-1.4,5.3,0l1.2,1.2c0.7,0.7,1.1,1.6,1.1,2.7c0,1-0.4,1.9-1.1,2.7l-5.1,5.1c1,0.7,1.9,1.5,2.8,2.4L39.6,25.7
	c-3.6-3.6-9.5-3.6-13.1,0c-1.8,1.7-2.7,4.1-2.7,6.6c0,2.5,1,4.8,2.7,6.6l-9.9,9.9v8.8H66.4z M42.3,9.7c0.7,0.3,1.4,0.6,2.1,1L50,5.1
	c0.1-0.1,0.1-0.1,0.1-0.2c0,0,0-0.1-0.1-0.2l-1.2-1.2c-0.1-0.1-0.1-0.1-0.2-0.1c0,0-0.1,0-0.2,0.1L42.3,9.7z M3.9,45.5
	c-0.5,0.5-0.5,1.3,0,1.8L7.6,51c0.5,0.5,1.3,0.5,1.8,0l12.5-12.5c-1.1-1.9-1.6-4-1.6-6.2c0-3.4,1.3-6.6,3.7-9
	c4.1-4.1,10.4-4.8,15.2-2.1l5.9-5.9c-8.2-5.9-19.6-5.2-26.9,2.1C12.9,22.6,11,30,12.6,36.8l-2.8,2.8c0,0,0,0,0,0L3.9,45.5 M62.9,61
	H13.1l0-8.8l-1.2,1.2c-0.9,0.9-2.2,1.4-3.4,1.4c-0.9,0-1.9-0.3-2.7-0.8l0,9.3h57.1V61z"/>
</svg>
