<?xml version="1.0" encoding="utf-8"?>
<!-- Generator: Adobe Illustrator 22.1.0, SVG Export Plug-In . SVG Version: 6.00 Build 0)  -->
<svg version="1.1" id="Calque_1" fill="#b2d235 " xmlns="http://www.w3.org/2000/svg" xmlns:xlink="http://www.w3.org/1999/xlink" x="0px" y="0px"
	 viewBox="0 0 66.4 71.2" style="enable-background:new 0 0 66.4 71.2;" xml:space="preserve">
<g>
	<g>
		<g>
			<circle cx="8.6" cy="46.2" r="2"/>
			<path d="M31.1,30.3c-1.1,1.1-1.1,2.8,0,3.9c1.1,1.1,2.8,1.1,3.9,0c1.1-1.1,1.1-2.8,0-3.9C33.9,29.3,32.2,29.3,31.1,30.3z"/>
		</g>
		<g>
			<path d="M33,52.6c5.2,0,10.4-2,14.4-5.9c7.2-7.2,7.8-18.5,1.9-26.4l-2.5,2.5c4.6,6.6,3.9,15.6-1.9,21.5
				C39.1,50,30,50.6,23.5,46.1L21,48.6C24.6,51.2,28.8,52.6,33,52.6z"/>
		</g>
	</g>
	<path d="M16.6,57.5v-8.8l9.9-9.9c-1.8-1.7-2.7-4.1-2.7-6.6c0-2.5,1-4.8,2.7-6.6c3.6-3.6,9.5-3.6,13.1,0L50.2,15
		c-0.9-0.9-1.8-1.6-2.8-2.4l5.1-5.1c0.7-0.7,1.1-1.6,1.1-2.7c0-1-0.4-1.9-1.1-2.7l-1.2-1.2c-1.4-1.4-3.9-1.4-5.3,0l-7.5,7.5
		c-8-1.9-16.7,0.2-22.9,6.4c-5.6,5.6-7.9,13.3-6.9,20.6L1.4,43c-1.9,1.9-1.9,4.9,0,6.7l1,1l0,16.2h6.4v2.6c0,1,0.8,1.8,1.8,1.8
		s1.8-0.8,1.8-1.8v-2.6h44.1v2.6c0,1,0.8,1.8,1.8,1.8c1,0,1.8-0.8,1.8-1.8v-2.6h6.6v-9.3H16.6z M48.5,3.5c0.1-0.1,0.1-0.1,0.2-0.1
		c0,0,0.1,0,0.2,0.1L50,4.7c0.1,0.1,0.1,0.1,0.1,0.2c0,0,0,0.1-0.1,0.2l-5.6,5.6c-0.7-0.4-1.4-0.7-2.1-1L48.5,3.5z M3.9,45.5
		l5.9-5.9c0,0,0,0,0,0l2.8-2.8C11,30,12.9,22.6,18.2,17.4c7.3-7.3,18.8-8,26.9-2.1l-5.9,5.9c-4.9-2.7-11.1-2-15.2,2.1
		c-2.4,2.4-3.7,5.6-3.7,9c0,2.2,0.6,4.3,1.6,6.2L9.4,51c-0.5,0.5-1.3,0.5-1.8,0l-3.8-3.8C3.4,46.7,3.4,45.9,3.9,45.5z M62.9,63.3
		H5.8l0-9.3c0.8,0.5,1.7,0.8,2.7,0.8c1.2,0,2.4-0.5,3.4-1.4l1.2-1.2l0,8.8h49.9V63.3z"/>
</g>
</svg>
