<?xml version="1.0" encoding="utf-8"?>
<!-- Generator: Adobe Illustrator 21.0.0, SVG Export Plug-In . SVG Version: 6.00 Build 0)  -->
<svg version="1.1" id="Calque_1" xmlns="http://www.w3.org/2000/svg" xmlns:xlink="http://www.w3.org/1999/xlink" x="0px" y="0px"
	 viewBox="0 0 67.2 57.9" style="enable-background:new 0 0 67.2 57.9;" xml:space="preserve">
<style type="text/css">
	.st0{fill:#FF6542;}
</style>
<path class="st0" d="M23.2,14.4c-0.2,1,0.1,2.1,0.7,3c0.6,0.8,0.4,1.9-0.4,2.4c-0.3,0.2-0.7,0.3-1,0.3c-0.6,0-1.1-0.3-1.4-0.8
	c-1.1-1.6-1.6-3.6-1.2-5.5c0.3-1.9,1.4-3.5,2.9-4.6c0.8-0.6,1.8-1,2.8-1.1c1-0.2,1.9,0.5,2,1.5c0.2,1-0.5,1.9-1.5,2
	c-0.5,0.1-1,0.3-1.3,0.5C23.8,12.7,23.3,13.5,23.2,14.4z M31.5,26.5c-2.5-2.1-6.6-1.7-9.2,1L10.4,39.8c0,0,0,0,0,0l2.5,2.5
	c0,0,0,0,0,0l11.9-12.3c1.3-1.3,3.3-1.7,4.4-0.8c1.1,0.9,1.1,3.1,0.1,4.7L13,57.9c0,0,0,0.1,0,0.1h4.2l15-22.1
	C34.3,32.7,34,28.6,31.5,26.5z M64.6,11.1c-4.8-6.9-14.3-8.5-21.3-3.7l-2.4,1.6l-1.6-2.4c-4.8-7-14.4-8.8-21.2-4.1
	c-5.8,4-7.9,11.5-5.4,18C0.5,30.6,0.2,32.4,0.1,33.1C-0.2,35,0.4,52.3,0.6,57.9h3.5c-0.3-8.8-0.7-22.2-0.6-24.2
	c0.8-1.3,5.8-5.8,10.7-9.9c0,0,0,0.1,0.1,0.1l3,4.4l2.5-2.6L17.2,22C13.5,16.6,14.7,9.2,20,5.5c5.3-3.7,12.6-2.2,16.4,3.2l2.6,3.8
	c0,0,0,0,0,0c0.5,0.8,1.6,1,2.4,0.4l3.8-2.6c5.4-3.7,12.8-2.5,16.4,2.8c3.7,5.3,2.2,12.6-3.2,16.4L34.1,46.4l-2.7-4l-2.1,3.1l3,4.3
	c0.3,0.4,0.6,0.6,1,0.7c0.1,0,0.3,0,0.4,0c0.3,0,0.7-0.1,1-0.3l25.9-17.9C67.5,27.5,69.3,18,64.6,11.1z"/>
</svg>
