<?xml version="1.0" encoding="utf-8"?>
<!-- Generator: Adobe Illustrator 21.0.0, SVG Export Plug-In . SVG Version: 6.00 Build 0)  -->
<svg version="1.1" id="Layer_1" xmlns="http://www.w3.org/2000/svg" xmlns:xlink="http://www.w3.org/1999/xlink" x="0px" y="0px"
	 viewBox="0 0 69.1 55.5" style="enable-background:new 0 0 69.1 55.5;" xml:space="preserve">
<style type="text/css">
	.st0{fill:#FF6542;}
</style>
<path class="st0" d="M47.5,13c-1.1,0.2-2.1,0.6-3,1.2V6.8h9.8V15c-0.8-0.8-1.9-1.4-3-1.7V9.8h-3.8V13z M7.8,20.8
	c-1.2,0-2.1,0.9-2.1,2.1c0,1.2,0.9,2.1,2.1,2.1c1.2,0,2.1-0.9,2.1-2.1C9.9,21.8,8.9,20.8,7.8,20.8 M30.9,42.4l2.9,3.5H5
	c-2.8,0-5-2.3-5-5V5c0-2.8,2.3-5,5-5h51.5c2.8,0,5,2.3,5,5v24L58,28.5V5c0-0.8-0.7-1.5-1.5-1.5H15.4v38.9H30.9z M3.5,40.9
	c0,0.8,0.7,1.5,1.5,1.5h6.9V3.5H5C4.2,3.5,3.5,4.2,3.5,5V40.9 M63.8,32.1l-10-1.6v-9.8c0-2.6-2.1-4.8-4.8-4.8h-0.3
	c-2.6,0-4.8,2.1-4.8,4.8l0,17.7l-2.5-2.5c-0.9-0.9-2.1-1.4-3.4-1.4c-1.3,0-2.4,0.5-3.3,1.4l-0.3,0.3c-1.9,1.8-1.9,4.9,0,6.7L46.6,55
	c0.3,0.3,0.8,0.5,1.2,0.5c0.5,0,0.9-0.2,1.2-0.5c0.7-0.7,0.7-1.8,0-2.5L37,40.4c-0.5-0.5-0.5-1.3,0-1.8l0.3-0.3
	c0.2-0.2,0.5-0.4,0.9-0.4c0.3,0,0.7,0.1,0.9,0.4l4.1,4.2c0.3,0.2,0.5,0.4,0.8,0.5c0.8,0.2,1.6,0.1,1.6,0.1c0.8-0.2,1.3-0.8,1.6-1.5
	c0.2-0.6,0.3-1.2,0.3-1.6c0-0.3,0-0.5,0-0.5l0,0l0,0l0-18.8c0-0.7,0.6-1.3,1.3-1.3h0.3c0.7,0,1.3,0.6,1.3,1.3v12.8l12.9,2.1
	c0,0,2.3,0.5,2.3,3.9l-1.1,13.7c-0.1,1,0.6,1.8,1.6,1.9c0,0,0.1,0,0.1,0c0.9,0,1.7-0.7,1.7-1.6l1.1-13.8c0,0,0-0.1,0-0.1
	C69.1,34.5,65.7,32.5,63.8,32.1 M28.9,6.8h-9.8v9.8h9.8V6.8z M22.1,9.8h3.8v3.8h-3.8V9.8z M29,19.2h-9.8V29H29V19.2z M22.2,22.2H26
	V26h-3.8V22.2z M41.7,6.8h-9.8v9.8h9.8V6.8z M34.9,9.8h3.8v3.8h-3.8V9.8z"/>
</svg>
