<?xml version="1.0" encoding="utf-8"?>
<!-- Generator: Adobe Illustrator 21.0.0, SVG Export Plug-In . SVG Version: 6.00 Build 0)  -->
<svg version="1.1" id="Layer_2" xmlns="http://www.w3.org/2000/svg" xmlns:xlink="http://www.w3.org/1999/xlink" x="0px" y="0px"
	 viewBox="0 0 166.5 52.4" style="enable-background:new 0 0 166.5 52.4;" xml:space="preserve">
<style type="text/css">
	.st0{fill:#007AC2;}
	.st1{fill:#B2D235;}
</style>
<path class="st0" d="M29,17.8c-1.5,0-2.8,0.3-4.2,0.7c-2.2-7.7-3.9-17-3.2-17c1.2,0,3.8,2.5,4.4,3.6C26.7,2.6,29,0,29,0
	s2.3,2.6,3.1,5.1c0.6-1.2,3.2-3.6,4.4-3.6c0.7,0-1,9.3-3.4,16.9C31.8,17.9,30.5,17.8,29,17.8 M41.2,24c7.1-3.2,14.4-7.3,14-7.7
	c-0.7-0.9-4.5-1.2-5.8-0.9c1.5-2,2.2-5.4,2.2-5.4s-3.6,0-6,1c0.6-1.2,0.9-4.7,0.1-5.5C45.3,5,39,12.2,34.2,18.8
	C37.2,19.8,39.5,21.7,41.2,24 M1.5,32.2h12.2c0.1-2.3,0.7-4.5,1.9-6.4C7.9,25.2-0.1,25.2,0,25.9c0.1,1.2,3.4,3.1,4.5,3.5
	C3.1,30,1.5,32.2,1.5,32.2 M58,25.9c0.1-0.6-7.9-0.6-15.6-0.1c1,1.9,1.7,4.1,1.9,6.4h12.2c0,0-1.6-2.2-3.1-2.8
	C54.6,29,57.7,27,58,25.9 M16.6,24c1.7-2.3,4.2-4.2,7-5.4C18.9,12.2,12.7,5.1,12.2,5.5c-0.7,0.9-0.4,4.4,0.1,5.5c-2.5-1-6.1-1-6.1-1
	s0.6,3.5,2.2,5.4c-1.3-0.3-5,0-5.8,0.9C2.2,16.9,9.5,20.8,16.6,24"/>
<path id="svg_8_8_" class="st1" d="M29,52.4c-10.6,0-19.4-8.7-19.4-19.4h4.1c0,8.5,6.8,15.3,15.3,15.3s15.3-6.8,15.3-15.3h4.1
	C48.4,43.7,39.6,52.4,29,52.4"/>
<path class="st0" d="M81.6,19.6c0,2.6-0.7,4.7-2,6.2c-1.3,1.5-3.2,2.2-5.6,2.2c-2.4,0-4.3-0.7-5.6-2.2c-1.3-1.5-2-3.5-2-6.2
	c0-2.7,0.7-4.7,2-6.2c1.3-1.4,3.2-2.2,5.7-2.2c2.4,0,4.3,0.7,5.6,2.2C80.9,14.9,81.6,16.9,81.6,19.6z M69.2,19.6
	c0,2,0.4,3.5,1.2,4.5c0.8,1,2,1.5,3.6,1.5c1.6,0,2.8-0.5,3.6-1.5c0.8-1,1.2-2.5,1.2-4.6c0-2-0.4-3.5-1.2-4.5c-0.8-1-2-1.5-3.6-1.5
	c-1.6,0-2.8,0.5-3.6,1.5C69.6,16.1,69.2,17.6,69.2,19.6z M97.5,27.7h-2.7V13.8h-7.2v13.9h-2.7V11.5h12.5V27.7z M107.4,27.7h-2.7
	V13.8H100v-2.3h12.2v2.3h-4.8V27.7z M114.7,11.5h2.4v8.4c0,0.9,0,1.8-0.1,2.7c0,0.9-0.1,1.5-0.1,1.8h0.1l8.3-12.9h3.1v16.2H126v-8.4
	c0-1.3,0.1-2.8,0.2-4.7h-0.1l-8.3,13h-3.1V11.5z M139.7,27.7L135,14.2h-0.1c0.1,2,0.2,3.9,0.2,5.7v7.9h-2.4V11.5h3.7l4.5,12.9h0.1
	l4.6-12.9h3.7v16.2h-2.6v-8c0-0.8,0-1.9,0.1-3.2c0-1.3,0.1-2.1,0.1-2.3h-0.1L142,27.7H139.7z M163.7,27.7l-1.6-4.5h-6.2l-1.6,4.5
	h-2.8l6.1-16.3h2.9l6.1,16.3H163.7z M161.3,20.9l-1.5-4.4c-0.1-0.3-0.3-0.8-0.5-1.4c-0.2-0.6-0.3-1.1-0.4-1.4
	c-0.2,0.9-0.5,1.9-0.9,3l-1.5,4.2H161.3z M82.5,48h-5l-4.8-8.2V48h-4.4V31.8h4.4v7.9l4.6-7.9h4.8l-5,7.7L82.5,48z M90.3,48.2
	c-1,0-2-0.1-2.8-0.3v-3.5c0.7,0.3,1.6,0.4,2.6,0.4c0.5,0,0.8-0.1,1.2-0.3c0.3-0.2,0.6-0.6,0.8-1.1l-5.3-11.6h4.7l2,4.9
	c0.1,0.2,0.2,0.4,0.3,0.7s0.2,0.5,0.3,0.8s0.2,0.6,0.3,0.8c0.1,0.3,0.2,0.5,0.2,0.7h0.2c0.3-1,0.6-2.2,1.1-3.5l1.7-4.5h4.7
	l-4.9,11.4c-0.6,1.4-1.2,2.5-1.8,3.1c-0.6,0.7-1.3,1.2-2.1,1.5C92.5,48,91.5,48.2,90.3,48.2z M122.4,48h-5.1l-3.2-5.1L111,48h-5
	l5.4-8.3l-5.1-7.9h4.9l2.9,5l2.8-5h5l-5.1,8.3L122.4,48z M142.2,48h-4.4v-6.6h-5.1V48h-4.4V31.8h4.4v6h5.1v-6h4.4V48z M149.8,31.8
	h3.9v7c0,0.7-0.1,2.2-0.2,4.4h0.1l6.5-11.4h5.4V48h-3.9v-6.8c0-1,0.1-2.6,0.2-4.6h-0.1L155.2,48h-5.4V31.8z"/>
</svg>
