<?xml version="1.0" encoding="utf-8"?>
<!-- Generator: Adobe Illustrator 21.0.0, SVG Export Plug-In . SVG Version: 6.00 Build 0)  -->
<svg version="1.1" id="Layer_1" xmlns="http://www.w3.org/2000/svg" xmlns:xlink="http://www.w3.org/1999/xlink" x="0px" y="0px"
	 viewBox="0 0 218.5 37.9" style="enable-background:new 0 0 218.5 37.9;" xml:space="preserve">
<style type="text/css">
	.st0{fill:#767675;}
	.st1{fill:#FF6542;}
</style>
<path class="st0" d="M13.5,14.4c0-0.8,0.7-1.5,1.5-1.5s1.5,0.7,1.5,1.5s-0.7,1.5-1.5,1.5S13.5,15.2,13.5,14.4z M23.5,14.4
	c0,0.8,0.7,1.5,1.5,1.5s1.5-0.7,1.5-1.5s-0.7-1.5-1.5-1.5S23.5,13.6,23.5,14.4z M21.5,17.9V6.5C21.5,4.6,23.1,3,25,3
	s3.5,1.6,3.5,3.5C28.5,7.3,29.2,8,30,8s1.5-0.7,1.5-1.5C31.5,2.9,28.6,0,25,0s-6.5,2.9-6.5,6.5v11.4c-9.2,0-18.5,0-18.5,0
	c0,11,9,20,20,20s20-9,20-20C40,17.9,30.7,17.9,21.5,17.9z"/>
<path class="st1" d="M60.9,31.1l-5-17.5h-0.1c0.2,3,0.3,5.3,0.3,6.9V31h-5.8V6.8H59L64.1,24h0.1l5-17.2h8.7v24.3h-6V20.4
	c0-0.6,0-1.2,0-1.8c0-0.7,0.1-2.3,0.2-5H72L67.1,31h-6.2V31.1z M105.9,18.9c0,4.1-1,7.2-3,9.3s-4.9,3.2-8.8,3.2
	c-3.8,0-6.7-1.1-8.8-3.2c-2-2.1-3-5.2-3-9.3c0-4,1-7.1,3-9.3c2-2.1,5-3.2,8.8-3.2c3.9,0,6.8,1.1,8.8,3.2S105.9,14.8,105.9,18.9z
	 M89.2,18.9c0,4.7,1.6,7,4.9,7c1.7,0,2.9-0.6,3.7-1.7c0.8-1.1,1.2-2.9,1.2-5.3s-0.4-4.2-1.2-5.4c-0.8-1.2-2-1.7-3.6-1.7
	C90.8,11.8,89.2,14.2,89.2,18.9z M118.9,15.8l4.2-9h7.1l-8,14.8v9.5h-6.6v-9.3l-8-15h7.1L118.9,15.8z M153.6,31.1h-7.4l-4.8-9.3
	l-1.9,1.2v8.1h-6.6V6.8h6.6v10.5c0.3-0.7,1-1.7,2-3.1l5.1-7.4h7.2L146,17.7L153.6,31.1z M156.2,31.1V6.8h6.6v24.3
	C162.8,31.1,156.2,31.1,156.2,31.1z M166.8,28.3c0-1,0.3-1.8,0.9-2.4c0.6-0.6,1.5-0.8,2.6-0.8s1.9,0.3,2.5,0.8
	c0.6,0.6,0.9,1.3,0.9,2.4c0,1-0.3,1.8-0.9,2.3c-0.6,0.6-1.4,0.8-2.5,0.8s-2-0.3-2.6-0.8S166.8,29.3,166.8,28.3z M198.6,31.1h-7.4
	l-4.8-9.3l-1.9,1.2v8.1h-6.6V6.8h6.6v10.5c0.3-0.7,1-1.7,2-3.1l5.1-7.4h7.2l-7.7,10.9L198.6,31.1z M218.5,31.1h-18.9V27l10.5-14.9
	h-10.3V6.8h18.4v4l-10.5,14.9h10.8V31.1z"/>
</svg>
