<?xml version="1.0" encoding="utf-8"?>
<!-- Generator: Adobe Illustrator 22.1.0, SVG Export Plug-In . SVG Version: 6.00 Build 0)  -->
<svg version="1.1" id="Layer_1" xmlns="http://www.w3.org/2000/svg" xmlns:xlink="http://www.w3.org/1999/xlink" x="0px" y="0px"
	 viewBox="0 0 58 52.4" style="enable-background:new 0 0 58 52.4;" xml:space="preserve">
<style type="text/css">
	.st0{fill:#007AC2;}
	.st1{fill:#B2D235;}
</style>
<g>
	<g>
		<path id="svg_3" class="st0" d="M29,17.8c1.5,0,2.8,0.1,4.1,0.6c2.3-7.6,4.1-16.9,3.4-16.9c-1.2,0-3.8,2.5-4.4,3.6
			C31.3,2.6,29,0,29,0s-2.3,2.6-3.1,5.1c-0.6-1.2-3.2-3.6-4.4-3.6c-0.7,0,1,9.3,3.2,17C26.2,18.1,27.5,17.8,29,17.8"/>
	</g>
	<g>
		<path id="svg_4" class="st0" d="M41.2,24c7.1-3.2,14.4-7.3,14-7.7c-0.7-0.9-4.5-1.2-5.8-0.9c1.5-2,2.2-5.4,2.2-5.4s-3.6,0-6,1
			c0.6-1.2,0.9-4.7,0.1-5.5C45.3,5,39,12.2,34.2,18.8C37.2,19.8,39.5,21.7,41.2,24"/>
	</g>
	<g>
		<path id="svg_5" class="st0" d="M1.5,32.2h12.2c0.1-2.3,0.7-4.5,1.9-6.4C7.9,25.2-0.1,25.2,0,25.9c0.1,1.2,3.4,3.1,4.5,3.5
			C3.1,30,1.5,32.2,1.5,32.2"/>
	</g>
	<g>
		<path id="svg_6" class="st0" d="M58,25.9c0.1-0.6-7.9-0.6-15.6-0.1c1,1.9,1.7,4.1,1.9,6.4h12.2c0,0-1.6-2.2-3.1-2.8
			C54.6,29,57.7,27,58,25.9"/>
	</g>
	<g>
		<path id="svg_7" class="st0" d="M16.6,24c1.7-2.3,4.2-4.2,7-5.4C18.9,12.2,12.7,5.1,12.2,5.5c-0.7,0.9-0.4,4.4,0.1,5.5
			c-2.5-1-6.1-1-6.1-1s0.6,3.5,2.2,5.4c-1.3-0.3-5,0-5.8,0.9C2.2,16.9,9.5,20.8,16.6,24"/>
	</g>
	<g>
		<path id="svg_8" class="st1" d="M29,52.4c-10.6,0-19.4-8.7-19.4-19.4h4.1c0,8.5,6.8,15.3,15.3,15.3s15.3-6.8,15.3-15.3h4.1
			C48.4,43.7,39.6,52.4,29,52.4"/>
	</g>
</g>
</svg>
