<?xml version="1.0" encoding="utf-8"?>
<!-- Generator: Adobe Illustrator 21.0.0, SVG Export Plug-In . SVG Version: 6.00 Build 0)  -->
<svg version="1.1" id="Layer_1" xmlns="http://www.w3.org/2000/svg" xmlns:xlink="http://www.w3.org/1999/xlink" x="0px" y="0px"
	 viewBox="0 0 40 37.9" style="enable-background:new 0 0 40 37.9;" xml:space="preserve">
<style type="text/css">
	.st0{fill:#767675;}
</style>
<path class="st0" d="M20,19.8c-0.8,0-1.5-0.7-1.5-1.5V6.5C18.5,2.9,21.4,0,25,0s6.5,2.9,6.5,6.5C31.5,7.3,30.8,8,30,8
	s-1.5-0.7-1.5-1.5C28.5,4.6,26.9,3,25,3s-3.5,1.6-3.5,3.5v11.8C21.5,19.1,20.8,19.8,20,19.8z M0,17.9c0,11,9,20,20,20s20-9,20-20H0z
	 M15,12.9c-0.8,0-1.5,0.7-1.5,1.5s0.7,1.5,1.5,1.5s1.5-0.7,1.5-1.5S15.8,12.9,15,12.9z M25,12.9c-0.8,0-1.5,0.7-1.5,1.5
	s0.7,1.5,1.5,1.5s1.5-0.7,1.5-1.5S25.8,12.9,25,12.9z"/>
</svg>
