<?xml version="1.0" encoding="utf-8"?>
<!-- Generator: Adobe Illustrator 21.0.0, SVG Export Plug-In . SVG Version: 6.00 Build 0)  -->
<svg version="1.1" id="Layer_1" xmlns="http://www.w3.org/2000/svg" xmlns:xlink="http://www.w3.org/1999/xlink" x="0px" y="0px"
	 viewBox="0 0 21.5 20.7" style="enable-background:new 0 0 21.5 20.7;" xml:space="preserve">
<style type="text/css">
	.st0{fill:#FFFFFF;}
</style>
<path class="st0" d="M1.2,20.7c-0.5,0-0.8-0.2-1-0.6C0,19.7,0,19.3,0.1,18.8c0.1-0.6,0.4-1.1,1-1.6c0.7-0.7,1.7-1.3,2.8-1.9
	c0.6-0.3,1.3-0.6,2-0.8C6.8,13.1,8,11,8.8,8.7C8.9,8.4,9,8.2,9.1,7.9C8.9,7.3,8.7,6.7,8.6,6.3C8.3,5.4,8.2,4.7,8.1,4
	c-0.1-0.6,0-1.3,0-1.9c0.1-0.6,0.2-1,0.4-1.3c0.3-0.4,0.6-0.6,0.9-0.7C9.6,0.1,9.8,0,9.9,0c0.2,0,0.4-0.1,0.7,0
	c0.2,0.1,0.3,0.1,0.5,0.3l0,0c0.9,0.4,0.8,1.1,0.7,2.1l0,0.4c-0.1,1.2-0.5,3.1-1.1,5c0,0.1,0.1,0.2,0.2,0.3c0.5,0.9,1.1,1.9,2,2.9
	c0.4,0.5,0.8,1,1.3,1.5c0.7,0,1.4,0,2.1,0c0.7,0.1,1.5,0.2,2.1,0.3c0.7,0.2,1.3,0.4,1.8,0.7c0.6,0.4,1,0.9,1.3,1.4
	c0.3,0.6,0.3,1.3,0,1.8c-0.2,0.3-0.5,0.8-1.3,1c-0.6,0.2-1.1,0.2-1.7,0c-0.5-0.2-1.2-0.5-1.9-1c-0.7-0.5-1.4-1.1-2.1-1.8
	c-0.3-0.3-0.6-0.6-0.9-1c-0.5,0.1-1.1,0.1-1.8,0.3c-0.8,0.1-1.8,0.4-3.1,0.7c-0.6,0.2-1.2,0.4-1.7,0.6c-0.1,0.1-0.1,0.2-0.2,0.3
	c-1.1,1.6-2.2,2.9-3.1,3.7c-0.7,0.6-1.4,0.9-2,1C1.4,20.6,1.3,20.7,1.2,20.7z M4.4,16.6c-1.3,0.6-2,1.3-2.3,1.6
	c-0.5,0.4-0.6,0.7-0.6,0.9c0,0,0,0.1,0,0.1c0.4-0.1,0.7-0.3,1.2-0.7C3,18.2,3.6,17.6,4.4,16.6z M15.3,13.9
	C15.3,13.9,15.4,14,15.3,13.9c0.8,0.8,1.4,1.3,2,1.8c0.6,0.4,1.1,0.7,1.5,0.8c0.3,0.1,0.6,0.1,0.9,0c0.1,0,0.3-0.1,0.4-0.3
	c0.1-0.1,0.1-0.4,0-0.6c-0.1-0.3-0.4-0.6-0.7-0.8c-0.3-0.2-0.7-0.4-1.3-0.5C17.4,14.1,16.7,14,16,14C15.8,13.9,15.6,13.9,15.3,13.9z
	 M10,9.6c-0.6,1.5-1.4,3-2,4.1c0.1,0,0.1,0,0.2,0c1.4-0.4,2.4-0.6,3.3-0.8c0.3-0.1,0.6-0.1,0.9-0.2c-0.2-0.3-0.5-0.6-0.7-0.8
	C11,11.1,10.5,10.3,10,9.6z M10.2,1.4c0,0-0.1,0-0.1,0c-0.1,0-0.1,0-0.1,0c-0.1,0-0.1,0.1-0.2,0.1c0,0.1-0.1,0.3-0.2,0.8
	c-0.1,0.5-0.1,1,0,1.6c0,0.5,0.1,1,0.3,1.6c0.3-1.2,0.5-2.2,0.5-2.9l0-0.4c0-0.3,0.1-0.5,0.1-0.7C10.4,1.5,10.2,1.4,10.2,1.4z
	 M10.5,1.6C10.5,1.6,10.5,1.6,10.5,1.6l0.1-0.2L10.5,1.6z"/>
</svg>
