<?xml version="1.0" encoding="utf-8"?>
<!-- Generator: Adobe Illustrator 22.1.0, SVG Export Plug-In . SVG Version: 6.00 Build 0)  -->
<svg version="1.1" id="Режим_изоляции"
	 xmlns="http://www.w3.org/2000/svg" xmlns:xlink="http://www.w3.org/1999/xlink" x="0px" y="0px" viewBox="0 0 380 113.7"
	 style="enable-background:new 0 0 380 113.7;" xml:space="preserve">
<style type="text/css">
	.st0{fill:#3D1612;}
	.st1{fill:#FFDA09;}
</style>
<g>
	<path class="st0" d="M194.5,17.2c0,6.2-3.1,11.1-9.3,14.9c-5.3,3.2-11.3,4.9-17.9,4.9c-4.2,0-7.8-0.7-10.8-2.2
		c-3.9-1.9-5.8-4.8-5.8-8.5c0-2.7,1.3-5.2,3.8-7.5c2.5-2.1,5.1-3.2,7.8-3.2c0.5,0,0.7,0.1,0.7,0.3c-2.7,0.1-5.1,1.2-7.4,3.3
		s-3.4,4.4-3.4,7c0,3.4,1.8,6,5.3,7.8c2.8,1.5,6,2.2,9.7,2.2c6.3,0,11.9-1.6,16.7-4.6c5.6-3.5,8.4-8.3,8.4-14.2
		c0-5.4-2.8-9.6-8.4-12.5c-4.5-2.4-9.8-3.6-15.7-3.6c-13.4,0.1-25.8,4.4-37.3,12.9c4.4,3.3,6.6,7.5,6.6,12.5c0,4.5-1.9,8.5-5.7,12
		c-3.2,2.9-7.2,5.2-12,6.7c2.8,2.6,4.2,5.8,4.3,9.4c0,7.7-4.5,14.4-13.5,20c3.9,2.3,5.8,4.8,5.8,7.5c0,0.7-0.1,1.1-0.4,1.2l-0.1-0.2
		c-0.6-3.5-2.5-6.2-5.9-8c-5.6,3.3-11.1,4.9-16.7,4.9c-3.4,0-5.2-0.9-5.2-2.9c0-1.8,1.7-3.2,5-4.2c2.4-0.7,4.8-1.1,7.2-1.1
		c3,0,5.7,0.5,8.1,1.6c3.4-2.9,6.2-6.2,8.2-9.9c2.4-4.2,3.6-8.2,3.6-12.3c0-2.6-0.6-4.4-1.7-5.6c-1.5,0.5-3.4,0.8-5.5,0.8
		c-4.3,0-6.5-0.8-6.5-2.6c0-1.6,1.3-2.4,4.1-2.5c2.8,0,5.6,1,8.4,2.9c4-1.7,7.5-4.3,10.5-7.7c3.3-3.9,5-7.8,5-11.8
		c0-3.9-1.5-7.3-4.5-10c-3.6,3.1-8.5,8.4-14.9,15.9c-5.6,6.7-11.2,13.5-16.7,20.3c-6.6,7.7-12.8,13.8-18.5,18.5
		c1,2.8,1.5,5.6,1.5,8.4c0,9.3-3.5,17.6-10.7,24.8S55.3,113.7,46,113.7c-8.8,0-15.5-2.7-20.2-8.1c-4.6-5.2-6.6-12.2-6.2-21.1
		c-5.3-1.6-9.4-3.9-12.4-7.1c-3.4-3.6-5.1-8-5.1-13.1c0-8.1,3.7-15,11.1-20.6s16.5-8.4,27.3-8.4c2,0,4,0.2,6.2,0.5
		c1.3-1.2,2.8-2.5,4.7-3.9C71,16.9,90.9,9.3,110.9,9.2c7.8,0,14,1.3,18.6,4c11.7-8.4,24.7-12.6,38.9-12.7c6.5,0,12.1,1.1,16.9,3.5
		C191.4,7,194.5,11.4,194.5,17.2L194.5,17.2z M117.6,45.1L117.6,45.1c-1.7-1.8-4.1-2.6-7-2.6c-2.3,0-3.4,0.5-3.4,1.6
		c0,0.6,0.8,1.2,2.3,1.5c1.1,0.2,2.1,0.4,3.1,0.4C114.1,46,115.7,45.7,117.6,45.1L117.6,45.1z M128.5,13.8
		c-3.9-2.5-9.7-3.7-17.7-3.7c-9.4,0-18.6,1.8-27.6,5.4c-7.6,3-15.8,7.6-24.7,13.8c-3.8,2.7-6.9,5-9.1,6.9v0.1
		c10.9,2.6,16.4,8,16.4,16.2c0,1.8-0.3,3.5-0.9,5c6.5,1.5,11,4.6,13.5,9.2c4.6-4.3,10.1-10.3,16.5-17.9
		c8.7-10.4,13.9-16.6,15.7-18.5C116.8,23.4,122.8,17.9,128.5,13.8L128.5,13.8z M107.6,74.4L107.6,74.4c-2.3-1-4.7-1.4-7-1.4
		s-4.3,0.3-6.1,0.8c-2.7,0.8-4.1,1.9-4.1,3.4c0,1.6,1.4,2.4,4.1,2.3C98.9,79.5,103.3,77.8,107.6,74.4L107.6,74.4z M65,52
		c0-4-2-7.3-6-9.9c-3.1-2-7-3.3-11.6-4C37,47.5,29.5,57.4,25,67.8c3.5,2.1,7.5,3.1,12.1,3l1.6-0.1l0.1-0.1c1.6-4.3,4.6-7.7,9-10.2
		c4-2.2,8.5-3.3,13.5-3.3c0.9,0,1.8,0,2.7,0.1C64.7,55.7,65,53.9,65,52L65,52z M63.6,58.1C62.7,58,61.8,58,60.8,58
		c-4.5,0-8.7,1.1-12.6,3.2c-4.2,2.2-7.1,5.3-8.6,9.3l0.1,0.1c5-0.3,9.6-1.3,13.7-3.2C58.4,65,61.8,61.9,63.6,58.1L63.6,58.1z
		 M77.3,67.7c-2.4-4.8-6.6-7.9-12.7-9.5c-1.9,4.6-5.4,8.1-10.6,10.6c-4.5,2.2-9.4,3.3-14.9,3.5c-0.2,0.7-0.4,1.8-0.4,3.3
		c0,0.2,0,0.5,0.1,0.8c0.1,0.4,0.1,0.6,0.1,0.8c0,0.1-0.1,0.3-0.2,0.4c-0.4,0.1-0.7-0.8-0.7-2.5c0-1.1,0.1-2.1,0.3-2.8
		c-5.5,0-10.1-1.2-13.8-3.6C22.3,74,21,79,20.6,83.7c4,1.2,8.7,1.7,14.1,1.7c8.4,0,16.1-1.6,23-4.6C64.1,78.1,70.6,73.8,77.3,67.7
		L77.3,67.7z M44.6,37.8c-1-0.1-2.5-0.2-4.3-0.2c-10.1,0-18.7,2.6-26.1,7.6C6.6,50.4,2.9,56.7,2.9,64.3c0,9.4,5.6,15.8,16.8,19.2
		c0.3-4.9,1.6-10,3.7-15.5c-1.2-0.9-2.3-2-3.2-3.4c-1-1.6-1.6-3-1.6-4.4c0-0.2,0.1-0.4,0.3-0.4c0.7,2.9,2.3,5.3,4.8,7.2
		C28.1,56.4,35,46.7,44.6,37.8L44.6,37.8z M79.6,77.5c0-2.2-0.4-4.5-1.1-6.9C71.7,76,64.9,80,58.1,82.5c-7.1,2.6-14.9,3.9-23.4,3.9
		c-4.9,0-9.6-0.6-14.1-1.7c0,0.4-0.1,1.2-0.1,2.4c0,7.8,2.4,14,7,18.7s10.8,7.1,18.6,7c8.9,0,16.8-3.7,23.6-11.1
		C76.3,94.6,79.7,86.5,79.6,77.5L79.6,77.5z M144.6,68.9c0,0.5-1.7,2.1-5.1,4.9c-2.5,2-4.6,3-6.3,3c-1.4,0-2.1-0.6-2.2-1.8
		c0-0.9,0.3-1.7,1-2.5h-0.1c-3.1,2.9-5.9,4.3-8.3,4.3c-1.9,0-2.8-0.8-2.8-2.5c0-1.4,0.7-3,2.1-4.6h-0.1c-0.7,0.8-1.2,1.2-1.4,1.2
		c-0.1,0-0.2,0-0.2-0.1v-0.1c0,0,0-0.1,0.1-0.3c1.2-1.5,3.3-3,6.2-4.6c2.9-1.6,5.2-2.4,6.9-2.4c1.7,0,2.6,0.6,2.6,1.9
		c0,0.3,0,0.6-0.1,1h0.1c1.7-1.9,3.2-2.9,4.6-2.9c0.6,0,1,0.1,1,0.2s-1.2,1.8-3.7,4.8c-2.5,3.1-3.7,5.1-3.7,6.1l0.1,0.4
		c0.1,0,0.3,0.1,0.5,0.1c1,0,2.7-1,5.1-3.1C143.1,69.9,144.4,68.9,144.6,68.9L144.6,68.9L144.6,68.9z M136.3,65.8
		c0-0.9-0.5-1.3-1.4-1.3c-1.3,0-3.4,1.4-6.4,4.3c-3,2.9-4.5,4.9-4.4,6.1c0,0.6,0.3,0.9,1,0.9c1.4,0,3.7-1.3,6.7-4
		C134.8,69,136.3,67,136.3,65.8L136.3,65.8z M178.5,69.4c0,0.3-0.9,1.4-2.8,3.1c-1.8,1.7-3,2.7-3.6,3c-1.2,0.7-2.4,1-3.5,1.1
		c-1.5,0-2.3-0.6-2.3-1.8c0-1.5,1.3-3.6,4-6.3l-0.1-0.1c-6.2,5.5-10.7,8.3-13.4,8.3c-1.5,0-2.3-0.6-2.3-1.8c0-1.5,1.3-3.6,4-6.3
		l-0.1-0.1c-6.2,5.5-10.6,8.3-13.1,8.3c-1.6,0-2.4-0.6-2.4-1.8c0-1.9,2.2-4.9,6.6-9.2v-0.1c-0.2,0.1-1.5,1.1-3.7,2.9
		c-2,1.6-3.1,2.4-3.2,2.4l-0.1-0.2c0-0.2,0.9-1.1,2.7-2.7c1.5-1.2,2.7-2.1,3.5-2.7c1.5-1,3-1.6,4.6-1.6c0.5,0,0.9,0.1,1,0.2
		c-0.1,0.1-1.5,2-4.1,5.4c-2.2,2.8-3.2,4.4-3.2,5c0,0,0.1,0.2,0.2,0.3c0.1,0.2,0.3,0.3,0.5,0.3c1.2,0,3.7-1.6,7.5-4.8
		c4.7-3.9,7.2-5.9,7.6-6.2c0.4-0.2,1.2-0.4,2.4-0.4c0.5,0,0.9,0.1,1,0.2c-0.1,0.1-1.5,2-4.1,5.4c-2.2,2.8-3.2,4.4-3.2,5
		c0,0,0.1,0.2,0.2,0.3c0.1,0.2,0.3,0.3,0.5,0.3c1.2,0,4.1-1.9,8.6-5.7c4.6-3.8,7.3-5.7,8.2-5.7c1,0,1.6,0.1,1.6,0.4
		c0,0.2-1.2,1.9-3.7,4.8c-2.5,3-3.7,4.8-3.7,5.6c0,0.2,0.1,0.4,0.1,0.5c0.1,0.1,0.2,0.2,0.4,0.2c0.7,0,2-0.8,3.8-2.5
		c2-1.9,3.2-2.9,3.7-3.1C178.5,69.3,178.5,69.3,178.5,69.4L178.5,69.4z M200.9,68.7c0,0.5-1.7,2.1-5.1,4.9c-2.5,2-4.6,3-6.3,3
		c-1.4,0-2.1-0.6-2.2-1.8c0-0.9,0.3-1.7,1-2.5h-0.1c-3.1,2.9-5.9,4.3-8.3,4.3c-1.9,0-2.8-0.8-2.8-2.5c0-1.4,0.7-3,2.1-4.6h-0.1
		c-0.7,0.8-1.2,1.2-1.4,1.2c-0.1,0-0.2,0-0.2-0.1v-0.1c0,0,0-0.1,0.1-0.3c1.2-1.5,3.3-3,6.2-4.6s5.2-2.4,6.9-2.4
		c1.7,0,2.6,0.6,2.6,1.9c0,0.3,0,0.6-0.1,1h0.1c1.7-1.9,3.2-2.9,4.6-2.9c0.6,0,1,0.1,1,0.2s-1.2,1.8-3.7,4.8
		c-2.5,3.1-3.7,5.1-3.7,6.1l0.1,0.4c0.1,0,0.3,0.1,0.5,0.1c1,0,2.7-1,5.1-3.1C199.3,69.7,200.6,68.6,200.9,68.7
		C200.9,68.6,200.9,68.7,200.9,68.7L200.9,68.7z M192.5,65.5c0-0.9-0.5-1.3-1.4-1.3c-1.3,0-3.4,1.4-6.4,4.3s-4.5,4.9-4.4,6.1
		c0,0.6,0.3,0.9,1,0.9c1.4,0,3.7-1.3,6.7-4C191,68.8,192.5,66.8,192.5,65.5L192.5,65.5z"/>
	<path class="st0" d="M125.7,82v27.6h8.9V90.2c0-0.2,0-0.5-0.1-0.9c-0.2-0.8-0.3-1.2-0.3-1.3c0-0.2,0.1-0.3,0.2-0.3s0.2,0.1,0.4,0.4
		c0.1,0.3,0.3,0.6,0.4,0.9l11.1,20.5h7.3L163.9,89c0.1-0.3,0.2-0.5,0.4-0.8c0.2-0.3,0.3-0.4,0.4-0.4c0.2,0,0.2,0.1,0.2,0.3
		c0,0.1-0.1,0.4-0.2,0.9c-0.1,0.5-0.2,0.9-0.2,1.2v19.4h8.9V82h-15.2l-7.6,15.5c-0.2,1-0.3,1.8-0.4,2.4c-0.1,0.6-0.2,0.9-0.3,0.9
		s-0.3-0.5-0.4-1.5s-0.2-1.6-0.3-1.8L141.6,82L125.7,82L125.7,82z M180.4,109.6V82h31.2v6.7h-22.3v3.9h21.3v6.6h-21.3v3.8h22.3v6.7
		h-31.2V109.6z M228.3,98.6v4.3h15.5c1.7,0,2.6-0.7,2.6-2c0-0.9-0.2-1.5-0.6-1.8s-1.1-0.5-2-0.5H228.3L228.3,98.6z M219.4,109.6V82
		h33.3v6.7h-24.3v3.8h18c3.1,0,5.4,0.7,6.8,2s2.2,3.4,2.2,6.1c0,3.4-0.8,5.8-2.5,7.2c-1.4,1.2-3.6,1.9-6.4,1.9L219.4,109.6
		L219.4,109.6z M261.1,109.6V82h31.2v6.7H270v3.9h21.3v6.6H270v3.8h22.3v6.7h-31.2V109.6z M337.5,81.9v27.6h-8.9V89h-15.9
		c0,8-0.7,13.5-2.2,16.5c-1.3,2.7-3.6,4-6.8,4h-4.2v-7.1c2.1,0,3.3-0.8,3.7-2.6c0.4-1.7,0.5-7.7,0.5-17.9H337.5L337.5,81.9z
		 M345.8,109.6V82h8.9v6.8h12.9c4.8,0,7.9,0.6,9.5,1.7c1.9,1.4,2.9,4.3,2.9,8.8c0,4.5-0.9,7.4-2.8,8.8c-1.5,1.1-4.7,1.7-9.5,1.7
		h-21.9V109.6z M354.7,95.9v6.6h12.9c1.1,0,1.9-0.2,2.4-0.6c0.6-0.5,1-1.4,1-2.7c0-1.2-0.3-2.1-1-2.6c-0.5-0.4-1.3-0.7-2.4-0.7
		L354.7,95.9L354.7,95.9z"/>
	<g>
		<path class="st1" d="M192.4,16.7c0,6.2-3.1,11.1-9.3,14.9c-5.3,3.2-11.3,4.9-17.9,4.9c-4.2,0-7.8-0.7-10.8-2.2
			c-3.9-1.9-5.8-4.8-5.8-8.6c0-2.7,1.3-5.2,3.8-7.5c2.5-2.1,5.1-3.2,7.8-3.2c0.5,0,0.7,0.1,0.7,0.3c-2.7,0.1-5.1,1.2-7.4,3.3
			s-3.4,4.4-3.4,7c0,3.4,1.8,6,5.3,7.8c2.8,1.5,6,2.2,9.7,2.2c6.3,0,11.9-1.6,16.7-4.6c5.6-3.5,8.4-8.3,8.4-14.2
			c0-5.4-2.8-9.6-8.4-12.5c-4.5-2.4-9.8-3.6-15.7-3.6c-13.4,0.1-25.8,4.4-37.3,12.9c4.4,3.3,6.6,7.5,6.6,12.5c0,4.5-1.9,8.5-5.7,12
			c-3.2,2.9-7.2,5.2-12,6.7c2.8,2.6,4.2,5.8,4.3,9.4c0,7.7-4.5,14.4-13.5,20c3.9,2.3,5.8,4.8,5.8,7.5c0,0.7-0.1,1.1-0.4,1.2
			l-0.1-0.2c-0.6-3.5-2.5-6.2-5.9-8c-5.6,3.3-11.1,4.9-16.7,5c-3.5,0-5.2-0.9-5.2-2.9c0-1.8,1.7-3.2,5-4.2c2.4-0.7,4.8-1.1,7.2-1.1
			c3,0,5.7,0.5,8.1,1.6c3.4-2.9,6.2-6.2,8.2-9.9c2.4-4.1,3.6-8.2,3.6-12.3c0-2.6-0.6-4.4-1.7-5.6c-1.5,0.5-3.4,0.8-5.5,0.8
			c-4.3,0-6.5-0.8-6.5-2.6c0-1.6,1.3-2.4,4.1-2.5c2.8,0,5.6,1,8.4,2.9c4-1.7,7.5-4.3,10.5-7.7c3.3-3.9,5-7.8,5-11.8
			c0-3.9-1.5-7.3-4.5-10c-3.6,3.1-8.5,8.4-14.9,15.9c-5.6,6.7-11.2,13.5-16.7,20.3c-6.6,7.7-12.8,13.8-18.5,18.5
			c1,2.8,1.5,5.6,1.5,8.4c0,9.3-3.5,17.6-10.7,24.8s-15.4,10.9-24.7,10.9c-8.8,0-15.5-2.7-20.2-8.1c-4.6-5.2-6.6-12.2-6.2-21.1
			c-5.3-1.6-9.4-3.9-12.4-7.1C1.7,73.3,0,68.9,0,63.8c0-8.1,3.7-15,11.1-20.6s16.5-8.4,27.3-8.4c2,0,4,0.2,6.2,0.5
			c1.3-1.2,2.8-2.5,4.7-3.9c19.6-15,39.5-22.6,59.5-22.7c7.8,0,14,1.3,18.6,4C139.1,4.3,152.1,0.1,166.3,0c6.5,0,12.1,1.1,16.9,3.5
			C189.3,6.5,192.3,10.9,192.4,16.7z M42.4,37.2c-1-0.1-2.5-0.2-4.3-0.2C28,37,19.4,39.6,12,44.6C4.4,49.8,0.7,56.1,0.7,63.7
			c0,9.4,5.6,15.8,16.8,19.2c0.3-4.9,1.6-10,3.7-15.5C20,66.6,19,65.5,18,64.1c-1-1.6-1.6-3-1.6-4.4c0-0.2,0.1-0.4,0.3-0.4
			c0.7,2.9,2.3,5.3,4.8,7.2C25.9,55.9,32.8,46.1,42.4,37.2z M77.5,77c0-2.2-0.4-4.5-1.1-6.9C69.6,75.5,62.8,79.5,56,82
			c-7.1,2.6-14.9,3.9-23.4,3.9c-4.9,0-9.6-0.6-14.1-1.7c0,0.4-0.1,1.2-0.1,2.4c0,7.8,2.4,14,7,18.7s10.8,7,18.6,7
			c8.9,0,16.8-3.7,23.6-11.1C74.2,94,77.5,85.9,77.5,77z M75.1,67.2c-2.4-4.8-6.6-7.9-12.7-9.5c-1.9,4.6-5.4,8.1-10.6,10.6
			c-4.5,2.2-9.4,3.3-14.9,3.5c-0.2,0.7-0.4,1.8-0.4,3.3c0,0.2,0,0.5,0.1,0.9s0.1,0.6,0.1,0.8c0,0.1-0.1,0.3-0.2,0.4
			c-0.4,0.1-0.7-0.8-0.7-2.5c0-1.1,0.1-2.1,0.3-2.8c-5.5,0-10.1-1.2-13.8-3.6c-2.2,5.3-3.5,10.3-3.9,15c4,1.2,8.7,1.7,14.1,1.7
			c8.4,0,16.1-1.6,23-4.6C61.9,77.6,68.4,73.2,75.1,67.2z M62.9,51.5c0-4-2-7.3-6-9.9c-3.1-2-7-3.3-11.6-4
			C34.9,47,27.5,56.8,22.9,67.3c3.5,2.1,7.5,3.1,12.1,3l1.6-0.1l0.1-0.1c1.6-4.3,4.5-7.7,9-10.2c4-2.2,8.5-3.3,13.5-3.3
			c0.9,0,1.8,0,2.7,0.1C62.5,55.1,62.9,53.4,62.9,51.5z M61.5,57.5c-0.9-0.1-1.8-0.1-2.8-0.1c-4.5,0-8.7,1.1-12.6,3.2
			c-4.3,2.3-7.2,5.4-8.7,9.4l0.1,0.1c5-0.3,9.6-1.3,13.7-3.2C56.2,64.5,59.6,61.4,61.5,57.5z M126.3,13.2c-3.9-2.5-9.7-3.7-17.7-3.7
			c-9.4,0-18.6,1.8-27.6,5.4c-7.6,3-15.8,7.6-24.7,13.8c-3.8,2.7-6.9,5-9.1,6.9v0.1c10.9,2.6,16.4,8,16.4,16.2c0,1.8-0.3,3.5-0.9,5
			c6.5,1.6,11,4.6,13.5,9.2c4.6-4.3,10.1-10.3,16.5-17.9c8.7-10.4,13.9-16.6,15.7-18.5C114.6,22.8,120.6,17.4,126.3,13.2z
			 M105.5,73.8L105.5,73.8c-2.3-1-4.7-1.4-7-1.4s-4.3,0.3-6.1,0.8c-2.7,0.8-4.1,1.9-4.1,3.4c0,1.6,1.4,2.4,4.1,2.3
			C96.7,79,101.1,77.2,105.5,73.8z M115.5,44.6L115.5,44.6c-1.7-1.8-4.1-2.6-7-2.6c-2.3,0-3.4,0.5-3.4,1.6c0,0.6,0.8,1.2,2.3,1.5
			c1.1,0.2,2.1,0.4,3.1,0.4C111.9,45.4,113.5,45.1,115.5,44.6z"/>
		<path class="st1" d="M137.4,73.2c-2.5,2-4.6,3-6.3,3c-1.4,0-2.1-0.6-2.2-1.8c0-0.9,0.3-1.7,1-2.5h-0.1c-3.1,2.9-5.9,4.3-8.3,4.3
			c-1.9,0-2.8-0.8-2.8-2.5c0-1.4,0.7-3,2-4.6h-0.1c-0.7,0.8-1.2,1.2-1.4,1.2c-0.1,0-0.2,0-0.2-0.1v-0.1l0.1-0.3
			c1.2-1.5,3.3-3,6.2-4.6c2.9-1.6,5.2-2.4,6.9-2.4c1.7,0,2.6,0.6,2.6,1.9c0,0.3,0,0.6-0.1,1h0.1c1.7-1.9,3.2-2.9,4.6-2.9
			c0.6,0,1,0.1,1,0.2s-1.2,1.8-3.7,4.8c-2.5,3.1-3.7,5.1-3.7,6.1l0.1,0.4c0.1,0,0.3,0.1,0.5,0.1c1,0,2.7-1,5.1-3.1s3.7-3.1,3.9-3.2
			l0.1,0.1C142.5,68.8,140.8,70.5,137.4,73.2z M134.1,65.2c0-0.9-0.5-1.3-1.4-1.3c-1.3,0-3.4,1.4-6.4,4.3c-3,2.9-4.5,4.9-4.4,6.1
			c0,0.6,0.3,0.9,1,0.9c1.4,0,3.7-1.3,6.7-4C132.6,68.5,134.1,66.5,134.1,65.2z"/>
		<path class="st1" d="M176.3,68.8c0,0.3-0.9,1.4-2.8,3.1c-1.8,1.7-3,2.7-3.6,3c-1.2,0.7-2.4,1-3.5,1c-1.5,0-2.3-0.6-2.3-1.8
			c0-1.5,1.3-3.6,4-6.3l-0.1-0.1c-6.2,5.5-10.7,8.3-13.4,8.3c-1.5,0-2.3-0.6-2.3-1.8c0-1.5,1.3-3.6,4-6.3l-0.1-0.1
			c-6.2,5.5-10.6,8.3-13.1,8.3c-1.6,0-2.4-0.6-2.4-1.8c0-1.9,2.2-4.9,6.6-9.2V65c-0.2,0.1-1.5,1.1-3.7,2.9c-2,1.6-3.1,2.4-3.2,2.4
			l-0.1-0.2c0-0.2,0.9-1.1,2.7-2.7c1.5-1.2,2.7-2.1,3.5-2.7c1.5-1,3-1.6,4.6-1.6c0.5,0,0.9,0.1,1,0.2c-0.1,0.1-1.5,2-4.1,5.4
			c-2.2,2.8-3.2,4.4-3.2,5c0,0,0.1,0.2,0.2,0.3c0.1,0.2,0.3,0.3,0.5,0.3c1.2,0,3.7-1.6,7.5-4.8c4.7-3.9,7.2-5.9,7.6-6.2
			c0.4-0.2,1.2-0.4,2.4-0.4c0.5,0,0.9,0.1,1,0.2c-0.1,0.1-1.5,2-4.1,5.4c-2.2,2.8-3.2,4.4-3.2,5c0,0,0.1,0.2,0.2,0.3
			c0.1,0.2,0.3,0.3,0.5,0.3c1.2,0,4.1-1.9,8.6-5.7c4.6-3.8,7.3-5.7,8.2-5.7c1,0,1.6,0.1,1.6,0.4c0,0.2-1.2,1.9-3.7,4.8
			c-2.5,3-3.7,4.8-3.7,5.6c0,0.2,0.1,0.4,0.1,0.5c0.1,0.1,0.2,0.2,0.4,0.2c0.7,0,2-0.8,3.8-2.5c2-1.9,3.2-2.9,3.7-3.1
			C176.3,68.7,176.3,68.7,176.3,68.8z"/>
		<path class="st1" d="M193.6,73c-2.5,2-4.6,3-6.3,3c-1.4,0-2.1-0.6-2.2-1.8c0-0.9,0.3-1.7,1-2.5H186c-3.1,2.9-5.9,4.3-8.3,4.3
			c-1.9,0-2.8-0.8-2.8-2.5c0-1.4,0.7-3,2-4.6h-0.1c-0.7,0.8-1.2,1.2-1.4,1.2c-0.1,0-0.2,0-0.2-0.1v-0.1l0.1-0.3
			c1.2-1.5,3.3-3,6.2-4.6s5.2-2.4,6.9-2.4c1.7,0,2.6,0.6,2.6,1.9c0,0.3,0,0.6-0.1,1h0.1c1.7-1.9,3.2-2.9,4.6-2.9c0.6,0,1,0.1,1,0.2
			s-1.3,1.8-3.8,4.8c-2.5,3.1-3.7,5.1-3.7,6.1l0.1,0.4c0.1,0,0.3,0.1,0.5,0.1c1,0,2.7-1,5.1-3.1s3.7-3.1,3.9-3.2l0.1,0.1
			C198.7,68.6,197,70.2,193.6,73z M190.4,65c0-0.9-0.5-1.3-1.4-1.3c-1.3,0-3.4,1.4-6.4,4.3s-4.5,4.9-4.4,6.1c0,0.6,0.3,0.9,1,0.9
			c1.4,0,3.7-1.3,6.7-4C188.8,68.2,190.4,66.2,190.4,65z"/>
	</g>
	<path class="st1" d="M123.6,81.5v27.6h8.9V89.7c0-0.2,0-0.5-0.1-0.9c-0.2-0.8-0.3-1.2-0.3-1.3c0-0.2,0.1-0.3,0.2-0.3
		c0.1,0,0.2,0.1,0.4,0.4c0.1,0.3,0.3,0.6,0.4,0.9l11.1,20.5h7.3l10.3-20.5c0.1-0.3,0.2-0.5,0.4-0.8c0.2-0.3,0.3-0.4,0.4-0.4
		c0.2,0,0.2,0.1,0.2,0.3c0,0.1-0.1,0.4-0.2,0.9c-0.1,0.5-0.2,0.9-0.2,1.2v19.4h8.9V81.5h-15.2L148.5,97c-0.2,1-0.3,1.8-0.4,2.4
		c-0.1,0.6-0.2,0.9-0.3,0.9s-0.3-0.5-0.4-1.5c-0.1-1-0.2-1.6-0.3-1.8l-7.6-15.5H123.6L123.6,81.5z M178.3,109V81.4h31.2v6.7h-22.3
		V92h21.3v6.6h-21.3v3.8h22.3v6.7h-31.2V109z M226.1,98v4.3h15.5c1.7,0,2.6-0.7,2.6-2c0-0.9-0.2-1.5-0.6-1.8s-1.1-0.5-2-0.5H226.1
		L226.1,98z M217.2,109V81.4h33.3v6.7h-24.3v3.8h18c3.1,0,5.4,0.7,6.8,2s2.2,3.4,2.2,6.1c0,3.4-0.8,5.8-2.5,7.2
		c-1.4,1.2-3.6,1.9-6.4,1.9L217.2,109L217.2,109z M259,109V81.4h31.2v6.7h-22.3V92h21.3v6.6h-21.3v3.8h22.3v6.7H259V109z
		 M335.4,81.4V109h-8.9V88.5h-15.9c0,8-0.7,13.5-2.2,16.5c-1.3,2.7-3.6,4-6.8,4h-4.2v-7.1c2.1,0,3.3-0.8,3.7-2.6
		c0.4-1.7,0.5-7.7,0.5-17.9H335.4L335.4,81.4z M343.6,109V81.4h8.9v6.8h12.9c4.8,0,7.9,0.6,9.5,1.7c1.9,1.4,2.9,4.3,2.9,8.8
		s-0.9,7.4-2.8,8.8c-1.5,1.1-4.7,1.7-9.5,1.7h-21.9V109z M352.5,95.3v6.6h12.9c1.1,0,1.9-0.2,2.4-0.6c0.6-0.5,1-1.4,1-2.7
		c0-1.2-0.3-2.1-1-2.6c-0.5-0.4-1.3-0.7-2.4-0.7L352.5,95.3L352.5,95.3z"/>
</g>
</svg>
